<?xml version="1.0" encoding="iso-8859-1"?>
<!-- Generator: Adobe Illustrator 16.0.0, SVG Export Plug-In . SVG Version: 6.00 Build 0)  -->
<!DOCTYPE svg PUBLIC "-//W3C//DTD SVG 1.1//EN" "http://www.w3.org/Graphics/SVG/1.1/DTD/svg11.dtd">
<svg version="1.1" id="Capa_1" xmlns="http://www.w3.org/2000/svg" xmlns:xlink="http://www.w3.org/1999/xlink" x="0px" y="0px"
	 width="1024px" height="1024px" viewBox="0 0 1024 1024" style="enable-background:new 0 0 1024 1024;" xml:space="preserve">
<g>
	<g id="XMLID_133_">
		<g id="XMLID_161_">
			<path id="XMLID_172_" style="fill:#FFFFFF;" d="M2932.774,527.828c16.138,0,32.276-16.139,32.276-32.276
				c0-16.137,0-64.552,0-64.552s-145.242,0-161.381,0c-16.137,0-32.277,16.138-32.277,32.276s0,96.828,0,96.828
				s0,32.276,32.277,32.276c32.275,0,161.381,0,161.381,0s0-32.276-32.276-32.276c-32.274,0-112.966,0-112.966,0
				s-16.139,0-16.139-16.138v-32.277c0,0,0,16.139,16.139,16.139C2823.844,527.828,2920.447,527.828,2932.774,527.828z
				 M2803.67,479.415c0-8.069,8.068-16.139,16.139-16.139c8.068,0,104.896,0,112.966,0c0,0,0,8.069,0,16.139
				c0,8.067-8.069,16.137-16.14,16.137c-8.066,0-112.965,0-112.965,0S2803.67,487.482,2803.67,479.415z"/>
			<path id="XMLID_169_" style="fill:#FFFFFF;" d="M3271.676,495.552c-16.139,0-32.277,16.138-32.277,32.276s0,64.553,0,64.553
				s145.241,0,161.381,0c16.137,0,32.275-16.139,32.275-32.276s0-96.828,0-96.828s0-32.276-32.275-32.276s-161.381,0-161.381,0
				s0,32.276,32.277,32.276c32.275,0,112.964,0,112.964,0s16.14,0,16.14,16.139v32.274c0,0,0-16.138-16.14-16.138
				C3380.605,495.552,3284.002,495.552,3271.676,495.552z M3400.779,543.967c0,8.068-8.068,16.138-16.14,16.138
				c-8.067,0-104.896,0-112.964,0c0,0,0-8.069,0-16.138c0-8.069,8.068-16.139,16.137-16.139c8.07,0,112.967,0,112.967,0
				S3400.779,535.897,3400.779,543.967z"/>
			<path id="XMLID_168_" style="fill:#FFFFFF;" d="M3190.984,592.381h32.274V431c0,0-8.067,0-16.136,0
				c-8.07,0-16.139,8.069-16.139,16.138C3190.984,455.207,3190.984,592.381,3190.984,592.381z"/>
			<path id="XMLID_167_" style="fill:#FFFFFF;" d="M2981.189,592.381c0,0,0-112.968,0-129.104c0-16.139,16.137-32.276,32.275-32.276
				v32.276c0,0,0-32.276,32.277-32.276c32.275,0,129.104,0,129.104,0s0,112.967,0,129.104s-16.137,32.276-32.275,32.276V463.276
				c0,0-104.898,0-112.967,0c-8.07,0-16.139,8.069-16.139,16.139c0,8.067,0,112.966,0,112.966H2981.189z"/>
			<path id="XMLID_164_" style="fill:#FFFFFF;" d="M3481.469,431c-16.139,0-32.276,16.138-32.276,32.276s0,129.104,0,129.104
				s145.243,0,161.381,0c16.14,0,32.276-16.139,32.276-32.276s0-129.104,0-129.104S3497.607,431,3481.469,431z M3610.573,543.967
				c0,8.068-8.069,16.138-16.138,16.138s-112.967,0-112.967,0s0-72.622,0-80.689c0-8.069,8.069-16.139,16.139-16.139
				c8.067,0,112.966,0,112.966,0S3610.573,535.897,3610.573,543.967z"/>
			<polygon id="XMLID_163_" style="fill:#FFFFFF;" points="3658.988,608.519 3465.33,479.415 3465.33,447.138 3658.988,576.242 			
				"/>
			<path id="XMLID_162_" style="fill:#FFFFFF;" d="M2755.256,439.069V431h-193.658c0,0,0,8.068,0,16.138s8.068,16.139,16.139,16.139
				c8.068,0,129.105,0,129.105,0s-102.88,68.587-121.037,80.69c-18.154,12.103-24.207,16.138-24.207,40.345v8.069h193.658
				c0,0,0-8.069,0-16.139s-8.068-16.138-16.139-16.138c-8.068,0-129.104,0-129.104,0s108.933-72.622,121.036-80.689
				C2749.203,467.311,2755.256,463.276,2755.256,439.069z"/>
		</g>
		<g id="XMLID_134_">
			<path id="XMLID_159_" style="fill:#4489FE;" d="M2640.809,636.774h-36.13v56.435h-6.949v-56.435h-36.132v-6.952h79.211V636.774z"
				/>
			<path id="XMLID_157_" style="fill:#4489FE;" d="M2654.348,655.799v2.287h72.535v6.951h-72.535v2.378
				c0,10.337,8.689,18.843,19.025,18.843h53.51v6.951h-53.51c-14.359,0-25.977-11.799-25.977-25.977v-11.434
				c0-14.36,11.799-25.977,25.977-25.977h53.51v6.952h-53.51c-5.215,0-9.971,2.104-13.445,5.579
				C2656.451,645.828,2654.348,650.586,2654.348,655.799z"/>
			<path id="XMLID_155_" style="fill:#4489FE;" d="M2744.535,667.232v-11.434c0-14.27,11.707-25.977,26.068-25.977h53.418v6.952
				h-53.418c-10.518,0-19.024,8.598-19.115,19.024v11.434c0,10.335,8.506,19.025,18.932,19.025h53.602v6.951h-53.418
				c-7.133,0-13.719-2.927-18.385-7.591C2747.463,680.861,2744.535,674.366,2744.535,667.232z"/>
			<path id="XMLID_153_" style="fill:#4489FE;" d="M2919.695,629.822v63.387h-7.043v-30.641H2848.9v30.641h-6.953v-63.387h6.953
				v25.793h63.752v-25.793H2919.695z"/>
			<path id="XMLID_151_" style="fill:#4489FE;" d="M2995.521,689.275l-43.627-51.403c-1.1-1.28-2.654-1.83-4.301-1.83
				c-2.835,0-5.762,1.739-5.854,4.94v52.227h-6.953v-52.868l0.094-0.273c0.457-6.951,6.769-11.067,12.896-11.067
				c3.566,0,7.135,1.372,9.514,4.48l43.627,51.406c1.1,1.279,2.746,1.92,4.301,1.92c2.744,0,5.488-1.829,5.762-5.03V629.64h7.043
				v52.776c-0.822,6.859-6.676,11.433-12.897,11.433c-1.737,0-3.567-0.365-5.304-1.188
				C2998.176,691.928,2997.17,691.288,2995.521,689.275z"/>
			<path id="XMLID_148_" style="fill:#4489FE;" d="M3062.292,693.209c-14.358,0-25.976-11.616-25.976-25.977v-11.434
				c0-14.27,11.617-25.977,25.976-25.977h47.017c14.359,0,26.066,11.707,26.066,25.977v11.434c0,14.36-11.707,25.977-26.066,25.977
				H3062.292z M3043.27,667.232c0,10.428,8.598,19.025,19.022,19.025h47.017c10.52,0,19.115-8.598,19.115-19.025v-11.434
				c0-10.427-8.596-19.024-19.115-19.024h-47.017c-10.425,0-19.022,8.598-19.022,19.024V667.232z"/>
			<path id="XMLID_146_" style="fill:#4489FE;" d="M3157.42,629.822v37.318c0,5.305,2.104,10.063,5.58,13.446
				c3.476,3.476,8.232,5.671,13.447,5.671h53.416v6.951h-53.416c-7.135,0-13.631-2.927-18.385-7.683
				c-4.666-4.665-7.594-11.16-7.594-18.386v-37.318H3157.42z"/>
			<path id="XMLID_143_" style="fill:#4489FE;" d="M3262.334,693.209c-14.359,0-25.977-11.616-25.977-25.977v-11.434
				c0-14.27,11.617-25.977,25.977-25.977h47.016c14.359,0,26.068,11.707,26.068,25.977v11.434c0,14.36-11.709,25.977-26.068,25.977
				H3262.334z M3243.309,667.232c0,10.428,8.598,19.025,19.025,19.025h47.016c10.518,0,19.115-8.598,19.115-19.025v-11.434
				c0-10.427-8.598-19.024-19.115-19.024h-47.016c-10.428,0-19.025,8.598-19.025,19.024V667.232z"/>
			<path id="XMLID_141_" style="fill:#4489FE;" d="M3376.486,693.209c-14.179,0-25.978-11.616-25.978-25.977v-11.434
				c0-14.177,11.616-25.977,25.978-25.977h38.416v6.952h-38.416c-10.336,0-19.025,8.506-19.025,18.841v11.617
				c0,10.335,8.508,19.025,18.842,19.025h31.098c10.336,0,19.025-8.506,19.025-18.843v-2.652h-28.902v-6.951h35.853v9.421
				c0,14.178-11.617,25.977-25.976,25.977H3376.486z"/>
			<path id="XMLID_139_" style="fill:#4489FE;" d="M3448.471,693.209v-63.387h6.951v63.387H3448.471z"/>
			<path id="XMLID_137_" style="fill:#4489FE;" d="M3477.467,655.799v2.287H3550v6.951h-72.533v2.378
				c0,10.337,8.689,18.843,19.025,18.843H3550v6.951h-53.508c-14.361,0-25.977-11.799-25.977-25.977v-11.434
				c0-14.36,11.799-25.977,25.977-25.977H3550v6.952h-53.508c-5.216,0-9.971,2.104-13.445,5.579
				C3479.57,645.828,3477.467,650.586,3477.467,655.799z"/>
			<path id="XMLID_135_" style="fill:#4489FE;" d="M3567.654,693.209v-6.951h60.459c5.854,0,10.61-4.756,10.61-10.611
				c0-5.945-4.665-10.701-10.61-10.701h-46.373c-9.604,0-17.563-7.774-17.563-17.561c0-9.879,7.775-17.654,17.563-17.745h60.459
				v6.952h-60.459c-6.037,0-10.336,4.847-10.611,10.609c0.457,6.037,4.847,10.793,10.611,10.793h46.373
				c9.694,0,17.562,7.866,17.562,17.562c0,9.787-7.772,17.653-17.562,17.653H3567.654z"/>
		</g>
	</g>
	<g id="XMLID_125_">
		<path id="XMLID_132_" style="fill:#4489FE;" d="M2321.692,656c-19.884,0-36-16.118-36-36c0-19.883,16.116-36,36-36
			c17.999,0,26.999,18,44.999,18c8.998,0,122.277,0,122.322,0c8.246-28.576,12.678-58.769,12.678-90
			c0-41.401-7.778-80.981-21.932-117.378L2141.692,620l228.704,152.471c46.31-34.318,83.154-80.681,105.881-134.471
			c-0.035,0-100.588,0-109.586,0C2348.691,638,2339.691,656,2321.692,656z"/>
		<path id="XMLID_131_" style="fill:#4489FE;" d="M1984.986,251.529c-46.31,34.317-83.154,80.681-105.881,134.471l0,0
			c0,0,100.586,0,109.586,0c18,0,27-18,45.001-18c19.88,0,36,16.117,36,36c0,19.882-16.12,36-36,36c-18.001,0-27.001-18-45.001-18
			c-9,0-122.322,0-122.322,0l0,0c-8.246,28.575-12.678,58.769-12.678,90c0,41.401,7.779,80.981,21.933,117.378L2213.692,404
			L1984.986,251.529z"/>
		<path id="XMLID_130_" style="fill:#4489FE;" d="M2462.785,357.938C2407.98,256.735,2300.865,188,2177.691,188
			c-56.564,0-109.735,14.51-156.018,39.988l0,0L2285.692,404l-393.095,262.062C1947.403,767.265,2054.519,836,2177.691,836
			c56.565,0,109.736-14.51,156.018-39.988L2069.692,620L2462.785,357.938z"/>
		<path id="XMLID_129_" style="fill:#FFFFFF;" d="M2021.674,227.988c-12.78,7.035-25.035,14.904-36.688,23.541l0,0L2213.692,404
			l-338.068,225.378h-0.001c4.912,12.63,10.582,24.88,16.975,36.684L2285.692,404L2021.674,227.988z"/>
		<path id="XMLID_128_" style="fill:#FFFFFF;" d="M2479.76,394.621c-4.912-12.63-10.584-24.88-16.975-36.684v0.001L2069.692,620
			l264.017,176.012l0,0c12.779-7.035,25.033-14.905,36.688-23.541h-0.001L2141.692,620L2479.76,394.621L2479.76,394.621z"/>
		<path id="XMLID_127_" style="fill:#FFFFFF;" d="M2489.014,602c-0.045,0-113.324,0-122.322,0c-18,0-27-18-44.999-18
			c-19.884,0-36,16.117-36,36c0,19.882,16.116,36,36,36c17.999,0,26.999-18,44.999-18c8.998,0,109.551,0,109.586,0l0,0
			C2481.205,626.334,2485.459,614.315,2489.014,602L2489.014,602z"/>
		<path id="XMLID_126_" style="fill:#FFFFFF;" d="M2033.692,368c-18.001,0-27.001,18-45.001,18c-9,0-109.586,0-109.586,0
			c-4.929,11.665-9.182,23.685-12.736,36c0,0,113.322,0,122.322,0c18,0,27,18,45.001,18c19.88,0,36-16.118,36-36
			C2069.692,384.117,2053.572,368,2033.692,368z"/>
	</g>
</g>
<g>
	<g id="XMLID_209_">
		<path id="XMLID_220_" style="fill:#FFFFFF;" d="M357.378,795.123c14.056,0,28.113-14.057,28.113-28.113s0-56.227,0-56.227
			s-126.509,0-140.565,0c-14.055,0-28.113,14.057-28.113,28.113s0,84.34,0,84.34s0,28.113,28.113,28.113s140.565,0,140.565,0
			s0-28.113-28.113-28.113c-28.111,0-98.396,0-98.396,0s-14.057,0-14.057-14.057v-28.113c0,0,0,14.057,14.057,14.057
			C262.499,795.123,346.641,795.123,357.378,795.123z M244.926,752.953c0-7.027,7.029-14.057,14.057-14.057
			c7.029,0,91.367,0,98.396,0c0,0,0,7.029,0,14.057s-7.028,14.057-14.058,14.057c-7.026,0-98.395,0-98.395,0
			S244.926,759.98,244.926,752.953z"/>
		<path id="XMLID_217_" style="fill:#FFFFFF;" d="M652.566,767.01c-14.057,0-28.113,14.057-28.113,28.113s0,56.227,0,56.227
			s126.508,0,140.564,0s28.113-14.059,28.113-28.113c0-14.057,0-84.34,0-84.34s0-28.113-28.113-28.113
			c-28.111,0-140.564,0-140.564,0s0,28.113,28.113,28.113s98.395,0,98.395,0s14.057,0,14.057,14.057v28.113
			c0,0,0-14.057-14.057-14.057C747.447,767.01,663.303,767.01,652.566,767.01z M765.018,809.18c0,7.027-7.027,14.057-14.057,14.057
			c-7.027,0-91.367,0-98.395,0c0,0,0-7.029,0-14.057c0-7.029,7.027-14.057,14.057-14.057s98.395,0,98.395,0
			S765.018,802.15,765.018,809.18z"/>
		<path id="XMLID_216_" style="fill:#FFFFFF;" d="M582.283,851.35h28.113V710.783c0,0-7.027,0-14.057,0s-14.057,7.029-14.057,14.057
			S582.283,851.35,582.283,851.35z"/>
		<path id="XMLID_215_" style="fill:#FFFFFF;" d="M399.549,851.35c0,0,0-98.396,0-112.453s14.055-28.113,28.111-28.113v28.113
			c0,0,0-28.113,28.115-28.113c28.111,0,112.451,0,112.451,0s0,98.396,0,112.453c0,14.055-14.055,28.113-28.113,28.113V738.896
			c0,0-91.367,0-98.395,0c-7.029,0-14.058,7.029-14.058,14.057s0,98.396,0,98.396H399.549z"/>
		<path id="XMLID_212_" style="fill:#FFFFFF;" d="M835.301,710.783c-14.059,0-28.113,14.057-28.113,28.113s0,112.453,0,112.453
			s126.508,0,140.566,0c14.057,0,28.111-14.059,28.111-28.113c0-14.057,0-112.453,0-112.453S849.357,710.783,835.301,710.783z
			 M947.754,809.18c0,7.027-7.029,14.057-14.059,14.057c-7.027,0-98.395,0-98.395,0s0-63.256,0-70.283s7.029-14.057,14.057-14.057
			s98.396,0,98.396,0S947.754,802.15,947.754,809.18z"/>
		<polygon id="XMLID_211_" style="fill:#FFFFFF;" points="989.922,865.404 821.242,752.953 821.242,724.84 989.922,837.291 		"/>
		<path id="XMLID_210_" style="fill:#FFFFFF;" d="M202.756,717.813v-7.029H34.079c0,0,0,7.027,0,14.057
			c0,7.027,7.027,14.057,14.057,14.057c7.027,0,112.453,0,112.453,0s-89.611,59.74-105.426,70.283
			c-15.813,10.541-21.084,14.057-21.084,35.141v7.029h168.678c0,0,0-7.029,0-14.059c0-7.027-7.027-14.055-14.057-14.055
			c-7.027,0-112.451,0-112.451,0s94.881-63.256,105.424-70.283C197.486,742.41,202.756,738.896,202.756,717.813z"/>
	</g>
	<g id="XMLID_182_">
		<path id="XMLID_207_" style="fill:#4489FE;" d="M103.073,890.018H71.602v49.154h-6.053v-49.154H34.079v-6.057h68.994V890.018z"/>
		<path id="XMLID_205_" style="fill:#4489FE;" d="M114.864,906.588v1.99h63.18v6.055h-63.18v2.072
			c0,9.004,7.57,16.412,16.572,16.412h46.607v6.055h-46.607c-12.508,0-22.626-10.277-22.626-22.625v-9.959
			c0-12.51,10.276-22.627,22.626-22.627h46.607v6.057h-46.607c-4.541,0-8.686,1.832-11.711,4.857
			C116.697,897.902,114.864,902.047,114.864,906.588z"/>
		<path id="XMLID_203_" style="fill:#4489FE;" d="M193.418,916.547v-9.959c0-12.43,10.199-22.627,22.707-22.627h46.527v6.057
			h-46.527c-9.162,0-16.57,7.488-16.65,16.57v9.959c0,9.002,7.409,16.57,16.49,16.57h46.688v6.055h-46.527
			c-6.213,0-11.949-2.549-16.014-6.611C195.969,928.418,193.418,922.76,193.418,916.547z"/>
		<path id="XMLID_201_" style="fill:#4489FE;" d="M345.987,883.961v55.211h-6.134v-26.689h-55.53v26.689h-6.055v-55.211h6.055
			v22.467h55.53v-22.467H345.987z"/>
		<path id="XMLID_199_" style="fill:#4489FE;" d="M412.032,935.746l-37.999-44.773c-0.958-1.115-2.312-1.594-3.746-1.594
			c-2.469,0-5.019,1.514-5.099,4.303v45.49h-6.056v-46.049l0.081-0.238c0.398-6.055,5.896-9.641,11.232-9.641
			c3.107,0,6.215,1.195,8.287,3.904l38,44.773c0.957,1.115,2.392,1.674,3.746,1.674c2.391,0,4.78-1.594,5.018-4.381v-45.414h6.135
			v45.971c-0.716,5.975-5.814,9.957-11.232,9.957c-1.514,0-3.108-0.318-4.621-1.035
			C414.344,938.055,413.468,937.498,412.032,935.746z"/>
		<path id="XMLID_196_" style="fill:#4489FE;" d="M470.192,939.172c-12.508,0-22.627-10.117-22.627-22.625v-9.959
			c0-12.43,10.119-22.627,22.627-22.627h40.951c12.507,0,22.705,10.197,22.705,22.627v9.959c0,12.508-10.197,22.625-22.705,22.625
			H470.192z M453.622,916.547c0,9.082,7.488,16.57,16.57,16.57h40.951c9.162,0,16.65-7.488,16.65-16.57v-9.959
			c0-9.082-7.488-16.57-16.65-16.57h-40.951c-9.082,0-16.57,7.488-16.57,16.57V916.547z"/>
		<path id="XMLID_194_" style="fill:#4489FE;" d="M553.049,883.961v32.504c0,4.621,1.832,8.766,4.859,11.713
			c3.029,3.027,7.172,4.939,11.713,4.939h46.527v6.055h-46.527c-6.215,0-11.873-2.549-16.014-6.691
			c-4.064-4.063-6.613-9.721-6.613-16.016v-32.504H553.049z"/>
		<path id="XMLID_191_" style="fill:#4489FE;" d="M644.43,939.172c-12.506,0-22.625-10.117-22.625-22.625v-9.959
			c0-12.43,10.119-22.627,22.625-22.627h40.951c12.508,0,22.707,10.197,22.707,22.627v9.959c0,12.508-10.199,22.625-22.707,22.625
			H644.43z M627.859,916.547c0,9.082,7.488,16.57,16.57,16.57h40.951c9.162,0,16.65-7.488,16.65-16.57v-9.959
			c0-9.082-7.488-16.57-16.65-16.57H644.43c-9.082,0-16.57,7.488-16.57,16.57V916.547z"/>
		<path id="XMLID_189_" style="fill:#4489FE;" d="M743.859,939.172c-12.35,0-22.627-10.117-22.627-22.625v-9.959
			c0-12.35,10.117-22.627,22.627-22.627h33.461v6.057h-33.461c-9.004,0-16.572,7.408-16.572,16.41v10.119
			c0,9.002,7.41,16.57,16.412,16.57h27.086c9.004,0,16.572-7.408,16.572-16.412v-2.311h-25.176v-6.055h31.23v8.207
			c0,12.348-10.119,22.625-22.627,22.625H743.859z"/>
		<path id="XMLID_187_" style="fill:#4489FE;" d="M806.559,939.172v-55.211h6.055v55.211H806.559z"/>
		<path id="XMLID_185_" style="fill:#4489FE;" d="M831.814,906.588v1.99h63.178v6.055h-63.178v2.072
			c0,9.004,7.568,16.412,16.57,16.412h46.607v6.055h-46.607c-12.508,0-22.625-10.277-22.625-22.625v-9.959
			c0-12.51,10.277-22.627,22.625-22.627h46.607v6.057h-46.607c-4.541,0-8.684,1.832-11.711,4.857
			C833.646,897.902,831.814,902.047,831.814,906.588z"/>
		<path id="XMLID_183_" style="fill:#4489FE;" d="M910.369,939.172v-6.055h52.66c5.1,0,9.244-4.143,9.244-9.242
			c0-5.178-4.064-9.32-9.244-9.32h-40.391c-8.365,0-15.297-6.773-15.297-15.297c0-8.604,6.771-15.377,15.297-15.457h52.66v6.057
			h-52.66c-5.26,0-9.004,4.221-9.244,9.24c0.398,5.26,4.223,9.402,9.244,9.402h40.391c8.445,0,15.297,6.852,15.297,15.295
			c0,8.525-6.77,15.377-15.297,15.377H910.369z"/>
	</g>
	<path id="XMLID_181_" style="fill:#4489FE;" d="M629.854,491.288c-17.318,0-31.355-14.039-31.355-31.356
		c0-17.318,14.037-31.356,31.355-31.356c15.678,0,23.518,15.678,39.195,15.678c7.838,0,106.506,0,106.545,0
		c7.184-24.89,11.043-51.188,11.043-78.392c0-36.061-6.775-70.536-19.104-102.237L473.071,459.931l199.207,132.803
		c40.336-29.891,72.428-70.273,92.223-117.125c-0.029,0-87.613,0-95.451,0C653.371,475.609,645.531,491.288,629.854,491.288z"/>
	<path id="XMLID_180_" style="fill:#4489FE;" d="M336.579,138.987c-40.336,29.892-72.429,70.274-92.225,117.126h0.001
		c0,0,87.611,0,95.45,0c15.679,0,23.518-15.678,39.196-15.678c17.317,0,31.356,14.038,31.356,31.356
		c0,17.317-14.039,31.356-31.356,31.356c-15.679,0-23.518-15.679-39.196-15.679c-7.839,0-106.544,0-106.544,0l0,0
		c-7.183,24.891-11.043,51.189-11.043,78.392c0,36.062,6.775,70.537,19.104,102.239l294.463-196.309L336.579,138.987z"/>
	<path id="XMLID_179_" style="fill:#4489FE;" d="M752.748,231.671c-47.736-88.149-141.035-148.02-248.32-148.02
		c-49.27,0-95.582,12.639-135.895,34.831l0,0l229.964,153.309l-342.391,228.26c47.735,88.15,141.035,148.019,248.321,148.019
		c49.269,0,95.582-12.639,135.894-34.83L410.358,459.931L752.748,231.671z"/>
	<path id="XMLID_178_" style="fill:#FFFFFF;" d="M368.534,118.483c-11.131,6.127-21.806,12.981-31.956,20.504h0.001l199.207,132.805
		L241.322,468.1l0,0c4.278,11,9.217,21.67,14.785,31.951l342.391-228.26L368.534,118.483z"/>
	<path id="XMLID_177_" style="fill:#FFFFFF;" d="M767.535,263.623c-4.279-11.001-9.219-21.671-14.785-31.952l-0.002,0.001
		l-342.39,228.26L640.322,613.24l0,0c11.131-6.129,21.805-12.982,31.955-20.506l0,0L473.071,459.931l294.462-196.308
		L767.535,263.623z"/>
	<path id="XMLID_176_" style="fill:#FFFFFF;" d="M775.594,444.252c-0.039,0-98.707,0-106.545,0
		c-15.678,0-23.518-15.678-39.195-15.678c-17.318,0-31.355,14.038-31.355,31.356c0,17.317,14.037,31.356,31.355,31.356
		c15.678,0,23.518-15.679,39.195-15.679c7.838,0,95.422,0,95.451,0h0.002C768.793,465.449,772.498,454.98,775.594,444.252
		L775.594,444.252z"/>
	<path id="XMLID_175_" style="fill:#FFFFFF;" d="M379.001,240.435c-15.679,0-23.518,15.678-39.196,15.678c-7.839,0-95.45,0-95.45,0
		c-4.293,10.161-7.997,20.63-11.094,31.356c0,0,98.705,0,106.544,0c15.679,0,23.518,15.679,39.196,15.679
		c17.317,0,31.356-14.039,31.356-31.356C410.358,254.473,396.319,240.435,379.001,240.435z"/>
</g>
<g>
	<g id="XMLID_751_">
		<path id="XMLID_752_" style="fill:#043A63;" d="M329.265,1871.726c14.056,0,28.113-14.057,28.113-28.112
			c0-14.057,0-56.227,0-56.227s-126.508,0-140.565,0c-14.055,0-28.113,14.057-28.113,28.113s0,84.339,0,84.339
			s0,28.113,28.113,28.113c28.113,0,140.565,0,140.565,0s0-28.113-28.113-28.113c-28.111,0-98.395,0-98.395,0
			s-14.057,0-14.057-14.056v-28.114c0,0,0,14.057,14.057,14.057C234.384,1871.726,318.528,1871.726,329.265,1871.726z
			 M216.813,1829.557c0-7.028,7.029-14.057,14.057-14.057c7.029,0,91.367,0,98.395,0c0,0,0,7.028,0,14.057
			c0,7.027-7.028,14.057-14.057,14.057c-7.027,0-98.395,0-98.395,0S216.813,1836.584,216.813,1829.557z"/>
		<path id="XMLID_326_" style="fill:#043A63;" d="M624.453,1843.613c-14.057,0-28.114,14.056-28.114,28.112
			c0,14.058,0,56.227,0,56.227s126.509,0,140.565,0c14.056,0,28.112-14.057,28.112-28.113c0-14.056,0-84.339,0-84.339
			s0-28.113-28.112-28.113s-140.565,0-140.565,0s0,28.113,28.114,28.113c28.112,0,98.395,0,98.395,0s14.057,0,14.057,14.057v28.112
			c0,0,0-14.056-14.057-14.056C719.333,1843.613,635.189,1843.613,624.453,1843.613z M736.904,1885.783
			c0,7.027-7.027,14.056-14.057,14.056c-7.028,0-91.367,0-98.395,0c0,0,0-7.028,0-14.056c0-7.028,7.027-14.058,14.056-14.058
			c7.029,0,98.396,0,98.396,0S736.904,1878.755,736.904,1885.783z"/>
		<path id="XMLID_755_" style="fill:#043A63;" d="M554.17,1927.952h28.112v-140.565c0,0-7.027,0-14.056,0
			c-7.029,0-14.057,7.028-14.057,14.057S554.17,1927.952,554.17,1927.952z"/>
		<path id="XMLID_756_" style="fill:#043A63;" d="M371.435,1927.952c0,0,0-98.396,0-112.452c0-14.057,14.055-28.113,28.112-28.113
			v28.113c0,0,0-28.113,28.114-28.113c28.112,0,112.451,0,112.451,0s0,98.396,0,112.452c0,14.057-14.055,28.113-28.112,28.113
			V1815.5c0,0-91.368,0-98.396,0c-7.029,0-14.057,7.028-14.057,14.057c0,7.027,0,98.396,0,98.396H371.435z"/>
		<path id="XMLID_757_" style="fill:#043A63;" d="M807.187,1787.387c-14.058,0-28.112,14.057-28.112,28.113s0,112.452,0,112.452
			s126.508,0,140.565,0c14.057,0,28.112-14.057,28.112-28.113c0-14.056,0-112.452,0-112.452S821.243,1787.387,807.187,1787.387z
			 M919.64,1885.783c0,7.027-7.029,14.056-14.058,14.056c-7.027,0-98.396,0-98.396,0s0-63.255,0-70.282
			c0-7.028,7.029-14.057,14.057-14.057c7.028,0,98.396,0,98.396,0S919.64,1878.755,919.64,1885.783z"/>
		<polygon id="XMLID_760_" style="fill:#043A63;" points="961.809,1942.009 793.129,1829.557 793.129,1801.443 961.809,1913.896 		
			"/>
		<path id="XMLID_761_" style="fill:#043A63;" d="M174.643,1794.415v-7.028H5.965c0,0,0,7.028,0,14.057s7.027,14.057,14.057,14.057
			c7.027,0,112.453,0,112.453,0s-89.611,59.74-105.425,70.283c-15.813,10.541-21.084,14.056-21.084,35.141v7.028h168.678
			c0,0,0-7.028,0-14.057c0-7.029-7.027-14.057-14.057-14.057c-7.028,0-112.452,0-112.452,0s94.882-63.255,105.424-70.282
			C169.372,1819.015,174.643,1815.5,174.643,1794.415z"/>
	</g>
	<g id="XMLID_762_">
		<path id="XMLID_763_" style="fill:#4489FE;" d="M74.958,1966.62h-31.47v49.155h-6.053v-49.155H5.965v-6.056h68.994V1966.62z"/>
		<path id="XMLID_765_" style="fill:#4489FE;" d="M86.75,1983.19v1.992h63.179v6.055H86.75v2.071c0,9.003,7.57,16.412,16.572,16.412
			h46.607v6.055h-46.607c-12.507,0-22.626-10.277-22.626-22.626v-9.959c0-12.508,10.277-22.626,22.626-22.626h46.607v6.056h-46.607
			c-4.542,0-8.685,1.832-11.711,4.859C88.583,1974.506,86.75,1978.649,86.75,1983.19z"/>
		<path id="XMLID_767_" style="fill:#4489FE;" d="M165.305,1993.149v-9.959c0-12.429,10.198-22.626,22.706-22.626h46.528v6.056
			h-46.528c-9.161,0-16.57,7.488-16.649,16.57v9.959c0,9.002,7.409,16.571,16.49,16.571h46.688v6.055h-46.528
			c-6.212,0-11.949-2.549-16.013-6.612C167.855,2005.021,165.305,1999.363,165.305,1993.149z"/>
		<path id="XMLID_769_" style="fill:#4489FE;" d="M317.873,1960.564v55.211h-6.133v-26.688h-55.53v26.688h-6.055v-55.211h6.055
			v22.466h55.53v-22.466H317.873z"/>
		<path id="XMLID_771_" style="fill:#4489FE;" d="M383.918,2012.349l-38-44.772c-0.958-1.115-2.312-1.594-3.746-1.594
			c-2.469,0-5.019,1.514-5.099,4.303v45.49h-6.056v-46.05l0.081-0.238c0.398-6.054,5.896-9.64,11.233-9.64
			c3.106,0,6.214,1.196,8.287,3.903l38,44.775c0.958,1.114,2.392,1.672,3.746,1.672c2.391,0,4.781-1.593,5.019-4.381v-45.412h6.135
			v45.969c-0.716,5.975-5.815,9.959-11.233,9.959c-1.514,0-3.108-0.318-4.621-1.036
			C386.23,2014.659,385.354,2014.102,383.918,2012.349z"/>
		<path id="XMLID_773_" style="fill:#4489FE;" d="M442.078,2015.775c-12.507,0-22.626-10.118-22.626-22.626v-9.959
			c0-12.429,10.119-22.626,22.626-22.626h40.951c12.507,0,22.705,10.197,22.705,22.626v9.959c0,12.508-10.197,22.626-22.705,22.626
			H442.078z M425.508,1993.149c0,9.083,7.489,16.571,16.57,16.571h40.951c9.163,0,16.65-7.488,16.65-16.571v-9.959
			c0-9.082-7.487-16.57-16.65-16.57h-40.951c-9.081,0-16.57,7.488-16.57,16.57V1993.149z"/>
		<path id="XMLID_776_" style="fill:#4489FE;" d="M524.935,1960.564v32.505c0,4.621,1.832,8.765,4.86,11.712
			c3.028,3.027,7.171,4.939,11.713,4.939h46.526v6.055h-46.526c-6.215,0-11.873-2.549-16.014-6.691
			c-4.064-4.063-6.614-9.721-6.614-16.015v-32.505H524.935z"/>
		<path id="XMLID_778_" style="fill:#4489FE;" d="M616.316,2015.775c-12.507,0-22.626-10.118-22.626-22.626v-9.959
			c0-12.429,10.119-22.626,22.626-22.626h40.951c12.508,0,22.706,10.197,22.706,22.626v9.959c0,12.508-10.198,22.626-22.706,22.626
			H616.316z M599.745,1993.149c0,9.083,7.488,16.571,16.571,16.571h40.951c9.161,0,16.649-7.488,16.649-16.571v-9.959
			c0-9.082-7.488-16.57-16.649-16.57h-40.951c-9.083,0-16.571,7.488-16.571,16.57V1993.149z"/>
		<path id="XMLID_781_" style="fill:#4489FE;" d="M715.745,2015.775c-12.35,0-22.626-10.118-22.626-22.626v-9.959
			c0-12.349,10.117-22.626,22.626-22.626h33.461v6.056h-33.461c-9.003,0-16.571,7.408-16.571,16.41v10.119
			c0,9.002,7.41,16.571,16.411,16.571h27.087c9.003,0,16.571-7.409,16.571-16.412v-2.311h-25.175v-6.055h31.229v8.206
			c0,12.349-10.119,22.626-22.626,22.626H715.745z"/>
		<path id="XMLID_783_" style="fill:#4489FE;" d="M778.444,2015.775v-55.211h6.055v55.211H778.444z"/>
		<path id="XMLID_785_" style="fill:#4489FE;" d="M803.7,1983.19v1.992h63.178v6.055H803.7v2.071
			c0,9.003,7.569,16.412,16.571,16.412h46.606v6.055h-46.606c-12.509,0-22.626-10.277-22.626-22.626v-9.959
			c0-12.508,10.277-22.626,22.626-22.626h46.606v6.056h-46.606c-4.542,0-8.685,1.832-11.711,4.859
			C805.533,1974.506,803.7,1978.649,803.7,1983.19z"/>
		<path id="XMLID_787_" style="fill:#4489FE;" d="M882.255,2015.775v-6.055h52.661c5.099,0,9.243-4.143,9.243-9.242
			c0-5.179-4.064-9.321-9.243-9.321h-40.392c-8.365,0-15.297-6.772-15.297-15.296c0-8.604,6.772-15.377,15.297-15.456h52.661v6.056
			h-52.661c-5.259,0-9.003,4.222-9.243,9.24c0.398,5.259,4.223,9.401,9.243,9.401h40.392c8.444,0,15.297,6.852,15.297,15.296
			c0,8.525-6.771,15.377-15.297,15.377H882.255z"/>
	</g>
	<path id="XMLID_44_" style="fill:#4489FE;" d="M601.74,1567.891c-17.318,0-31.356-14.039-31.356-31.356
		s14.038-31.356,31.356-31.356c15.678,0,23.518,15.678,39.195,15.678c7.838,0,106.506,0,106.545,0
		c7.183-24.89,11.043-51.188,11.043-78.391c0-36.061-6.775-70.537-19.104-102.238l-294.462,196.308l199.206,132.805
		c40.336-29.892,72.429-70.274,92.224-117.126c-0.03,0-87.613,0-95.451,0C625.258,1552.213,617.418,1567.891,601.74,1567.891z"/>
	<path id="XMLID_353_" style="fill:#4489FE;" d="M308.464,1215.59c-40.336,29.892-72.428,70.275-92.224,117.127h0
		c0,0,87.611,0,95.451,0c15.678,0,23.517-15.679,39.196-15.679c17.317,0,31.357,14.039,31.357,31.356s-14.04,31.357-31.357,31.357
		c-15.679,0-23.518-15.679-39.196-15.679c-7.839,0-106.544,0-106.544,0l0,0c-7.183,24.89-11.043,51.188-11.043,78.392
		c0,36.061,6.775,70.536,19.104,102.238l294.463-196.309L308.464,1215.59z"/>
	<path id="XMLID_354_" style="fill:#4489FE;" d="M724.635,1308.274c-47.736-88.149-141.035-148.019-248.321-148.019
		c-49.269,0-95.582,12.638-135.894,34.83h0l229.963,153.309l-342.391,228.26c47.736,88.15,141.035,148.02,248.321,148.02
		c49.269,0,95.582-12.639,135.894-34.831l-229.963-153.309L724.635,1308.274z"/>
	<path id="XMLID_351_" style="fill:#FFFFFF;" d="M340.42,1195.086c-11.132,6.127-21.806,12.982-31.957,20.504h0l199.207,132.805
		l-294.463,196.309l0,0c4.278,11,9.217,21.67,14.785,31.951l342.391-228.26L340.42,1195.086z"/>
	<path id="XMLID_349_" style="fill:#FFFFFF;" d="M739.421,1340.227c-4.279-11.002-9.219-21.672-14.785-31.953l-0.001,0.001
		l-342.39,228.26l229.963,153.309l0,0c11.131-6.127,21.805-12.982,31.955-20.504l0,0l-199.206-132.805L739.421,1340.227
		L739.421,1340.227z"/>
	<path id="XMLID_344_" style="fill:#FFFFFF;" d="M747.48,1520.855c-0.039,0-98.707,0-106.545,0
		c-15.678,0-23.518-15.678-39.195-15.678c-17.318,0-31.356,14.039-31.356,31.356s14.038,31.356,31.356,31.356
		c15.678,0,23.518-15.678,39.195-15.678c7.838,0,95.421,0,95.451,0h0.001C740.68,1542.052,744.385,1531.583,747.48,1520.855
		L747.48,1520.855z"/>
	<path id="XMLID_350_" style="fill:#FFFFFF;" d="M350.888,1317.038c-15.679,0-23.518,15.679-39.196,15.679
		c-7.839,0-95.451,0-95.451,0c-4.293,10.16-7.998,20.629-11.094,31.356c0,0,98.705,0,106.544,0
		c15.678,0,23.517,15.679,39.196,15.679c17.317,0,31.357-14.04,31.357-31.357S368.205,1317.038,350.888,1317.038z"/>
</g>
<g>
	<g id="XMLID_51_">
		<path id="XMLID_65_" style="fill:#FFFFFF;" d="M179.19-3189.098c14.056,0,28.113-14.057,28.113-28.113c0-14.056,0-56.226,0-56.226
			s-126.508,0-140.565,0c-14.055,0-28.113,14.056-28.113,28.113c0,14.057,0,84.339,0,84.339s0,28.113,28.113,28.113
			c28.113,0,140.565,0,140.565,0s0-28.113-28.113-28.113c-28.111,0-98.395,0-98.395,0s-14.057,0-14.057-14.056v-28.114
			c0,0,0,14.057,14.057,14.057C84.31-3189.098,168.454-3189.098,179.19-3189.098z M66.738-3231.267
			c0-7.028,7.029-14.057,14.057-14.057c7.029,0,91.367,0,98.395,0c0,0,0,7.028,0,14.057c0,7.027-7.028,14.056-14.057,14.056
			c-7.027,0-98.395,0-98.395,0S66.738-3224.239,66.738-3231.267z"/>
		<path id="XMLID_59_" style="fill:#FFFFFF;" d="M474.379-3217.211c-14.057,0-28.114,14.057-28.114,28.113
			c0,14.058,0,56.227,0,56.227s126.509,0,140.565,0c14.056,0,28.112-14.058,28.112-28.113s0-84.339,0-84.339s0-28.113-28.112-28.113
			s-140.565,0-140.565,0s0,28.113,28.114,28.113c28.112,0,98.395,0,98.395,0s14.057,0,14.057,14.057v28.112
			c0,0,0-14.057-14.057-14.057C569.259-3217.211,485.115-3217.211,474.379-3217.211z M586.83-3175.04
			c0,7.027-7.027,14.056-14.057,14.056c-7.028,0-91.367,0-98.395,0c0,0,0-7.028,0-14.056c0-7.029,7.027-14.058,14.056-14.058
			c7.029,0,98.396,0,98.396,0S586.83-3182.069,586.83-3175.04z"/>
		<path id="XMLID_58_" style="fill:#FFFFFF;" d="M404.096-3132.871h28.112v-140.565c0,0-7.027,0-14.056,0
			c-7.029,0-14.057,7.028-14.057,14.056C404.096-3252.353,404.096-3132.871,404.096-3132.871z"/>
		<path id="XMLID_57_" style="fill:#FFFFFF;" d="M221.361-3132.871c0,0,0-98.396,0-112.452c0-14.058,14.055-28.113,28.112-28.113
			v28.113c0,0,0-28.113,28.114-28.113c28.112,0,112.451,0,112.451,0s0,98.396,0,112.452s-14.055,28.113-28.112,28.113v-112.452
			c0,0-91.368,0-98.396,0c-7.029,0-14.057,7.028-14.057,14.057c0,7.027,0,98.396,0,98.396H221.361z"/>
		<path id="XMLID_54_" style="fill:#FFFFFF;" d="M657.112-3273.437c-14.058,0-28.112,14.056-28.112,28.113
			c0,14.057,0,112.452,0,112.452s126.508,0,140.565,0c14.057,0,28.112-14.058,28.112-28.113s0-112.452,0-112.452
			S671.169-3273.437,657.112-3273.437z M769.565-3175.04c0,7.027-7.029,14.056-14.058,14.056c-7.027,0-98.396,0-98.396,0
			s0-63.255,0-70.282c0-7.028,7.029-14.057,14.057-14.057c7.028,0,98.396,0,98.396,0S769.565-3182.069,769.565-3175.04z"/>
		<polygon id="XMLID_53_" style="fill:#FFFFFF;" points="811.734,-3118.815 643.055,-3231.267 643.055,-3259.381 811.734,-3146.929 
					"/>
		<path id="XMLID_52_" style="fill:#FFFFFF;" d="M24.569-3266.408v-7.028h-168.678c0,0,0,7.027,0,14.056s7.027,14.058,14.057,14.058
			c7.027,0,112.453,0,112.453,0s-89.611,59.74-105.425,70.283c-15.813,10.541-21.084,14.056-21.084,35.141v7.028H24.569
			c0,0,0-7.028,0-14.058c0-7.028-7.027-14.056-14.057-14.056c-7.028,0-112.452,0-112.452,0s94.882-63.255,105.424-70.282
			C19.298-3241.81,24.569-3245.323,24.569-3266.408z"/>
	</g>
	<g id="XMLID_8_">
		<path id="XMLID_46_" style="fill:#7CC0DE;" d="M-75.116-3094.203h-31.47v49.155h-6.053v-49.155h-31.471v-6.056h68.994V-3094.203z"
			/>
		<path id="XMLID_31_" style="fill:#7CC0DE;" d="M-63.324-3077.633v1.991h63.179v6.055h-63.179v2.072
			c0,9.003,7.57,16.412,16.572,16.412h46.607v6.055h-46.607c-12.507,0-22.626-10.277-22.626-22.626v-9.959
			c0-12.509,10.277-22.626,22.626-22.626h46.607v6.056h-46.607c-4.542,0-8.685,1.832-11.711,4.858
			C-61.491-3086.317-63.324-3082.174-63.324-3077.633z"/>
		<path id="XMLID_29_" style="fill:#7CC0DE;" d="M15.231-3067.674v-9.959c0-12.429,10.198-22.626,22.706-22.626h46.528v6.056H37.937
			c-9.161,0-16.57,7.488-16.649,16.57v9.959c0,9.002,7.409,16.571,16.49,16.571h46.688v6.055H37.937
			c-6.212,0-11.949-2.55-16.013-6.612C17.781-3055.803,15.231-3061.46,15.231-3067.674z"/>
		<path id="XMLID_27_" style="fill:#7CC0DE;" d="M167.798-3100.259v55.211h-6.133v-26.689h-55.53v26.689h-6.055v-55.211h6.055
			v22.466h55.53v-22.466H167.798z"/>
		<path id="XMLID_25_" style="fill:#7CC0DE;" d="M233.844-3048.475l-38-44.772c-0.958-1.115-2.312-1.595-3.746-1.595
			c-2.469,0-5.019,1.515-5.099,4.304v45.49h-6.056v-46.05l0.081-0.238c0.398-6.054,5.896-9.64,11.233-9.64
			c3.106,0,6.214,1.195,8.287,3.903l38,44.774c0.958,1.115,2.392,1.673,3.746,1.673c2.391,0,4.781-1.593,5.019-4.381v-45.413h6.135
			v45.97c-0.716,5.975-5.815,9.958-11.233,9.958c-1.514,0-3.108-0.318-4.621-1.035
			C236.156-3046.165,235.28-3046.722,233.844-3048.475z"/>
		<path id="XMLID_22_" style="fill:#7CC0DE;" d="M292.003-3045.048c-12.507,0-22.626-10.118-22.626-22.626v-9.959
			c0-12.429,10.119-22.626,22.626-22.626h40.951c12.507,0,22.705,10.197,22.705,22.626v9.959c0,12.508-10.197,22.626-22.705,22.626
			H292.003z M275.434-3067.674c0,9.083,7.489,16.571,16.57,16.571h40.951c9.163,0,16.65-7.488,16.65-16.571v-9.959
			c0-9.082-7.487-16.57-16.65-16.57h-40.951c-9.081,0-16.57,7.488-16.57,16.57V-3067.674z"/>
		<path id="XMLID_20_" style="fill:#7CC0DE;" d="M374.86-3100.259v32.504c0,4.621,1.832,8.766,4.86,11.713
			c3.028,3.027,7.171,4.939,11.713,4.939h46.526v6.055h-46.526c-6.215,0-11.873-2.55-16.014-6.691
			c-4.064-4.063-6.614-9.721-6.614-16.016v-32.504H374.86z"/>
		<path id="XMLID_17_" style="fill:#7CC0DE;" d="M466.242-3045.048c-12.507,0-22.626-10.118-22.626-22.626v-9.959
			c0-12.429,10.119-22.626,22.626-22.626h40.951c12.508,0,22.706,10.197,22.706,22.626v9.959c0,12.508-10.198,22.626-22.706,22.626
			H466.242z M449.671-3067.674c0,9.083,7.488,16.571,16.571,16.571h40.951c9.161,0,16.649-7.488,16.649-16.571v-9.959
			c0-9.082-7.488-16.57-16.649-16.57h-40.951c-9.083,0-16.571,7.488-16.571,16.57V-3067.674z"/>
		<path id="XMLID_15_" style="fill:#7CC0DE;" d="M565.671-3045.048c-12.35,0-22.626-10.118-22.626-22.626v-9.959
			c0-12.349,10.117-22.626,22.626-22.626h33.461v6.056h-33.461c-9.003,0-16.571,7.408-16.571,16.41v10.119
			c0,9.002,7.41,16.571,16.411,16.571h27.087c9.003,0,16.571-7.409,16.571-16.412v-2.311h-25.175v-6.055h31.229v8.206
			c0,12.349-10.119,22.626-22.626,22.626H565.671z"/>
		<path id="XMLID_13_" style="fill:#7CC0DE;" d="M628.37-3045.048v-55.211h6.055v55.211H628.37z"/>
		<path id="XMLID_11_" style="fill:#7CC0DE;" d="M653.626-3077.633v1.991h63.178v6.055h-63.178v2.072
			c0,9.003,7.569,16.412,16.571,16.412h46.606v6.055h-46.606c-12.509,0-22.626-10.277-22.626-22.626v-9.959
			c0-12.509,10.277-22.626,22.626-22.626h46.606v6.056h-46.606c-4.542,0-8.685,1.832-11.711,4.858
			C655.459-3086.317,653.626-3082.174,653.626-3077.633z"/>
		<path id="XMLID_9_" style="fill:#7CC0DE;" d="M732.181-3045.048v-6.055h52.661c5.099,0,9.243-4.143,9.243-9.242
			c0-5.179-4.064-9.321-9.243-9.321H744.45c-8.365,0-15.297-6.772-15.297-15.296c0-8.604,6.772-15.377,15.297-15.457h52.661v6.057
			H744.45c-5.259,0-9.003,4.221-9.243,9.24c0.398,5.259,4.223,9.401,9.243,9.401h40.392c8.444,0,15.297,6.852,15.297,15.296
			c0,8.524-6.771,15.377-15.297,15.377H732.181z"/>
	</g>
	<path id="XMLID_7_" style="fill:#7CC0DE;" d="M451.666-3492.933c-17.318,0-31.356-14.039-31.356-31.356
		c0-17.318,14.038-31.356,31.356-31.356c15.678,0,23.518,15.678,39.195,15.678c7.838,0,106.506,0,106.545,0
		c7.183-24.89,11.043-51.188,11.043-78.391c0-36.061-6.775-70.536-19.104-102.238l-294.462,196.308l199.206,132.804
		c40.336-29.891,72.429-70.273,92.224-117.126c-0.03,0-87.613,0-95.451,0C475.184-3508.611,467.344-3492.933,451.666-3492.933z"/>
	<path id="XMLID_6_" style="fill:#7CC0DE;" d="M158.39-3845.233c-40.336,29.892-72.428,70.274-92.224,117.126h0
		c0,0,87.611,0,95.451,0c15.678,0,23.517-15.678,39.196-15.678c17.317,0,31.357,14.038,31.357,31.356
		c0,17.318-14.04,31.356-31.357,31.356c-15.679,0-23.518-15.679-39.196-15.679c-7.839,0-106.544,0-106.544,0l0,0
		c-7.183,24.891-11.043,51.19-11.043,78.392c0,36.061,6.775,70.537,19.104,102.239l294.463-196.309L158.39-3845.233z"/>
	<path id="XMLID_5_" style="fill:#7CC0DE;" d="M574.561-3752.549c-47.736-88.15-141.035-148.02-248.321-148.02
		c-49.269,0-95.582,12.639-135.894,34.831h0l229.963,153.308l-342.391,228.26c47.736,88.15,141.035,148.02,248.321,148.02
		c49.269,0,95.582-12.639,135.894-34.831L232.17-3524.289L574.561-3752.549z"/>
	<path id="XMLID_4_" style="fill:#FFFFFF;" d="M190.346-3865.737c-11.132,6.127-21.806,12.981-31.957,20.504h0l199.207,132.805
		L63.134-3516.12l0,0c4.278,11,9.217,21.67,14.785,31.951l342.391-228.26L190.346-3865.737z"/>
	<path id="XMLID_3_" style="fill:#FFFFFF;" d="M589.347-3720.597c-4.279-11.001-9.219-21.671-14.785-31.952l-0.001,0.001
		l-342.39,228.26l229.963,153.309l0,0c11.131-6.128,21.805-12.982,31.955-20.505l0,0l-199.206-132.804L589.347-3720.597
		L589.347-3720.597z"/>
	<path id="XMLID_2_" style="fill:#FFFFFF;" d="M597.406-3539.968c-0.039,0-98.707,0-106.545,0
		c-15.678,0-23.518-15.678-39.195-15.678c-17.318,0-31.356,14.038-31.356,31.356c0,17.317,14.038,31.356,31.356,31.356
		c15.678,0,23.518-15.679,39.195-15.679c7.838,0,95.421,0,95.451,0h0.001C590.605-3518.771,594.311-3529.24,597.406-3539.968
		L597.406-3539.968z"/>
	<path id="XMLID_1_" style="fill:#FFFFFF;" d="M200.813-3743.785c-15.679,0-23.518,15.678-39.196,15.678c-7.839,0-95.451,0-95.451,0
		c-4.293,10.161-7.998,20.63-11.094,31.356c0,0,98.705,0,106.544,0c15.678,0,23.517,15.679,39.196,15.679
		c17.317,0,31.357-14.039,31.357-31.356C232.17-3729.747,218.13-3743.785,200.813-3743.785z"/>
</g>
<g>
	<g id="XMLID_33_">
		<g id="XMLID_304_">
			<path id="XMLID_333_" style="fill:#043A63;" d="M2961.797,1560.531c16.138,0,32.276-16.139,32.276-32.275
				c0-16.138,0-64.553,0-64.553s-145.242,0-161.381,0c-16.137,0-32.277,16.138-32.277,32.276s0,96.828,0,96.828
				s0,32.276,32.277,32.276c32.275,0,161.381,0,161.381,0s0-32.276-32.276-32.276c-32.274,0-112.966,0-112.966,0
				s-16.139,0-16.139-16.138v-32.277c0,0,0,16.139,16.139,16.139C2852.866,1560.531,2949.47,1560.531,2961.797,1560.531z
				 M2832.692,1512.118c0-8.069,8.068-16.139,16.139-16.139c8.068,0,104.896,0,112.966,0c0,0,0,8.069,0,16.139
				c0,8.067-8.069,16.138-16.14,16.138c-8.066,0-112.965,0-112.965,0S2832.692,1520.186,2832.692,1512.118z"/>
			<path id="XMLID_329_" style="fill:#043A63;" d="M3300.698,1528.256c-16.139,0-32.277,16.137-32.277,32.275s0,64.553,0,64.553
				s145.241,0,161.381,0c16.137,0,32.275-16.139,32.275-32.276s0-96.828,0-96.828s0-32.276-32.275-32.276s-161.381,0-161.381,0
				s0,32.276,32.277,32.276c32.275,0,112.964,0,112.964,0s16.14,0,16.14,16.139v32.274c0,0,0-16.137-16.14-16.137
				C3409.628,1528.256,3313.024,1528.256,3300.698,1528.256z M3429.802,1576.67c0,8.068-8.068,16.138-16.14,16.138
				c-8.067,0-104.896,0-112.964,0c0,0,0-8.069,0-16.138c0-8.069,8.068-16.139,16.137-16.139c8.07,0,112.967,0,112.967,0
				S3429.802,1568.601,3429.802,1576.67z"/>
			<path id="XMLID_323_" style="fill:#043A63;" d="M3220.007,1625.084h32.274v-161.381c0,0-8.067,0-16.136,0
				c-8.07,0-16.139,8.069-16.139,16.138C3220.007,1487.91,3220.007,1625.084,3220.007,1625.084z"/>
			<path id="XMLID_321_" style="fill:#043A63;" d="M3010.212,1625.084c0,0,0-112.967,0-129.104
				c0-16.139,16.137-32.276,32.275-32.276v32.276c0,0,0-32.276,32.277-32.276c32.275,0,129.104,0,129.104,0s0,112.967,0,129.104
				s-16.137,32.276-32.275,32.276v-129.104c0,0-104.898,0-112.967,0c-8.07,0-16.139,8.069-16.139,16.139
				c0,8.067,0,112.966,0,112.966H3010.212z"/>
			<path id="XMLID_318_" style="fill:#043A63;" d="M3510.491,1463.703c-16.139,0-32.276,16.138-32.276,32.276s0,129.104,0,129.104
				s145.243,0,161.381,0c16.14,0,32.276-16.139,32.276-32.276s0-129.104,0-129.104S3526.63,1463.703,3510.491,1463.703z
				 M3639.596,1576.67c0,8.068-8.069,16.138-16.138,16.138s-112.967,0-112.967,0s0-72.622,0-80.689
				c0-8.069,8.069-16.139,16.139-16.139c8.067,0,112.966,0,112.966,0S3639.596,1568.601,3639.596,1576.67z"/>
			<polygon id="XMLID_317_" style="fill:#043A63;" points="3688.011,1641.222 3494.353,1512.118 3494.353,1479.841 
				3688.011,1608.945 			"/>
			<path id="XMLID_312_" style="fill:#043A63;" d="M2784.278,1471.772v-8.069H2590.62c0,0,0,8.068,0,16.138
				s8.068,16.139,16.139,16.139c8.068,0,129.105,0,129.105,0s-102.88,68.587-121.037,80.69
				c-18.154,12.103-24.207,16.138-24.207,40.345v8.069h193.658c0,0,0-8.069,0-16.139s-8.068-16.138-16.139-16.138
				c-8.068,0-129.104,0-129.104,0s108.933-72.622,121.036-80.689C2778.226,1500.014,2784.278,1495.979,2784.278,1471.772z"/>
		</g>
		<g id="XMLID_41_">
			<path id="XMLID_302_" style="fill:#4489FE;" d="M2669.831,1669.479h-36.13v56.434h-6.949v-56.434h-36.132v-6.953h79.211V1669.479
				z"/>
			<path id="XMLID_296_" style="fill:#4489FE;" d="M2683.37,1688.502v2.287h72.535v6.951h-72.535v2.378
				c0,10.337,8.689,18.843,19.025,18.843h53.51v6.951h-53.51c-14.359,0-25.977-11.799-25.977-25.977v-11.434
				c0-14.36,11.799-25.977,25.977-25.977h53.51v6.953h-53.51c-5.215,0-9.971,2.103-13.445,5.578
				C2685.474,1678.531,2683.37,1683.289,2683.37,1688.502z"/>
			<path id="XMLID_294_" style="fill:#4489FE;" d="M2773.558,1699.936v-11.434c0-14.27,11.707-25.977,26.068-25.977h53.418v6.953
				h-53.418c-10.518,0-19.024,8.597-19.115,19.023v11.434c0,10.336,8.506,19.025,18.932,19.025h53.602v6.951h-53.418
				c-7.133,0-13.719-2.927-18.385-7.591C2776.485,1713.564,2773.558,1707.07,2773.558,1699.936z"/>
			<path id="XMLID_266_" style="fill:#4489FE;" d="M2948.718,1662.525v63.387h-7.043v-30.641h-63.752v30.641h-6.953v-63.387h6.953
				v25.793h63.752v-25.793H2948.718z"/>
			<path id="XMLID_257_" style="fill:#4489FE;" d="M3024.544,1721.979l-43.627-51.403c-1.1-1.28-2.654-1.829-4.301-1.829
				c-2.835,0-5.762,1.738-5.854,4.939v52.227h-6.953v-52.868l0.094-0.273c0.457-6.951,6.769-11.067,12.896-11.067
				c3.566,0,7.135,1.373,9.514,4.481l43.627,51.405c1.1,1.279,2.746,1.92,4.301,1.92c2.744,0,5.488-1.828,5.762-5.029v-52.138h7.043
				v52.776c-0.822,6.859-6.676,11.433-12.897,11.433c-1.737,0-3.567-0.364-5.304-1.188
				C3027.198,1724.631,3026.192,1723.991,3024.544,1721.979z"/>
			<path id="XMLID_121_" style="fill:#4489FE;" d="M3091.314,1725.912c-14.358,0-25.976-11.616-25.976-25.977v-11.434
				c0-14.27,11.617-25.977,25.976-25.977h47.017c14.359,0,26.066,11.707,26.066,25.977v11.434c0,14.36-11.707,25.977-26.066,25.977
				H3091.314z M3072.292,1699.936c0,10.428,8.598,19.025,19.022,19.025h47.017c10.52,0,19.115-8.598,19.115-19.025v-11.434
				c0-10.427-8.596-19.023-19.115-19.023h-47.017c-10.425,0-19.022,8.597-19.022,19.023V1699.936z"/>
			<path id="XMLID_116_" style="fill:#4489FE;" d="M3186.442,1662.525v37.318c0,5.305,2.104,10.063,5.58,13.446
				c3.476,3.477,8.232,5.671,13.447,5.671h53.416v6.951h-53.416c-7.135,0-13.631-2.927-18.385-7.682
				c-4.666-4.666-7.594-11.16-7.594-18.387v-37.318H3186.442z"/>
			<path id="XMLID_102_" style="fill:#4489FE;" d="M3291.356,1725.912c-14.359,0-25.977-11.616-25.977-25.977v-11.434
				c0-14.27,11.617-25.977,25.977-25.977h47.016c14.359,0,26.068,11.707,26.068,25.977v11.434c0,14.36-11.709,25.977-26.068,25.977
				H3291.356z M3272.331,1699.936c0,10.428,8.598,19.025,19.025,19.025h47.016c10.518,0,19.115-8.598,19.115-19.025v-11.434
				c0-10.427-8.598-19.023-19.115-19.023h-47.016c-10.428,0-19.025,8.597-19.025,19.023V1699.936z"/>
			<path id="XMLID_63_" style="fill:#4489FE;" d="M3405.509,1725.912c-14.179,0-25.978-11.616-25.978-25.977v-11.434
				c0-14.177,11.616-25.977,25.978-25.977h38.416v6.953h-38.416c-10.336,0-19.025,8.506-19.025,18.84v11.617
				c0,10.336,8.508,19.025,18.842,19.025h31.098c10.336,0,19.025-8.506,19.025-18.843v-2.651h-28.902v-6.951h35.853v9.42
				c0,14.178-11.617,25.977-25.976,25.977H3405.509z"/>
			<path id="XMLID_49_" style="fill:#4489FE;" d="M3477.493,1725.912v-63.387h6.951v63.387H3477.493z"/>
			<path id="XMLID_47_" style="fill:#4489FE;" d="M3506.489,1688.502v2.287h72.533v6.951h-72.533v2.378
				c0,10.337,8.689,18.843,19.025,18.843h53.508v6.951h-53.508c-14.361,0-25.977-11.799-25.977-25.977v-11.434
				c0-14.36,11.799-25.977,25.977-25.977h53.508v6.953h-53.508c-5.216,0-9.971,2.103-13.445,5.578
				C3508.593,1678.531,3506.489,1683.289,3506.489,1688.502z"/>
			<path id="XMLID_42_" style="fill:#4489FE;" d="M3596.677,1725.912v-6.951h60.459c5.854,0,10.61-4.756,10.61-10.61
				c0-5.946-4.665-10.702-10.61-10.702h-46.373c-9.604,0-17.563-7.774-17.563-17.561c0-9.879,7.775-17.653,17.563-17.745h60.459
				v6.952h-60.459c-6.037,0-10.336,4.847-10.611,10.609c0.457,6.037,4.847,10.793,10.611,10.793h46.373
				c9.694,0,17.562,7.866,17.562,17.562c0,9.787-7.772,17.653-17.562,17.653H3596.677z"/>
		</g>
	</g>
	<g id="XMLID_32_">
		<path id="XMLID_40_" style="fill:#4489FE;" d="M2350.715,1688.703c-19.884,0-36-16.118-36-36c0-19.883,16.116-36,36-36
			c17.999,0,26.999,18,44.999,18c8.998,0,122.277,0,122.322,0c8.246-28.576,12.678-58.769,12.678-90
			c0-41.4-7.778-80.981-21.932-117.378l-338.067,225.378l228.704,152.471c46.31-34.318,83.154-80.681,105.881-134.471
			c-0.035,0-100.588,0-109.586,0C2377.714,1670.703,2368.714,1688.703,2350.715,1688.703z"/>
		<path id="XMLID_39_" style="fill:#4489FE;" d="M2014.009,1284.232c-46.31,34.317-83.154,80.681-105.881,134.471l0,0
			c0,0,100.586,0,109.586,0c18,0,27-18,45.001-18c19.88,0,36,16.117,36,36c0,19.882-16.12,36-36,36c-18.001,0-27.001-18-45.001-18
			c-9,0-122.322,0-122.322,0l0,0c-8.246,28.576-12.678,58.77-12.678,90c0,41.401,7.779,80.981,21.933,117.378l338.068-225.378
			L2014.009,1284.232z"/>
		<path id="XMLID_38_" style="fill:#4489FE;" d="M2491.808,1390.642c-54.805-101.203-161.92-169.938-285.094-169.938
			c-56.564,0-109.735,14.51-156.018,39.988l0,0l264.019,176.012l-393.095,262.063c54.806,101.202,161.921,169.938,285.094,169.938
			c56.565,0,109.736-14.51,156.018-39.988l-264.017-176.012L2491.808,1390.642z"/>
		<path id="XMLID_37_" style="fill:#FFFFFF;" d="M2050.696,1260.691c-12.78,7.035-25.035,14.904-36.688,23.541l0,0l228.706,152.471
			l-338.068,225.378h-0.001c4.912,12.63,10.582,24.88,16.975,36.685l393.095-262.063L2050.696,1260.691z"/>
		<path id="XMLID_36_" style="fill:#FFFFFF;" d="M2508.782,1427.324c-4.912-12.629-10.584-24.879-16.975-36.684v0.001
			l-393.093,262.062l264.017,176.012l0,0c12.779-7.035,25.033-14.905,36.688-23.541h-0.001l-228.704-152.471L2508.782,1427.324
			L2508.782,1427.324z"/>
		<path id="XMLID_35_" style="fill:#FFFFFF;" d="M2518.036,1634.703c-0.045,0-113.324,0-122.322,0c-18,0-27-18-44.999-18
			c-19.884,0-36,16.117-36,36c0,19.882,16.116,36,36,36c17.999,0,26.999-18,44.999-18c8.998,0,109.551,0,109.586,0l0,0
			C2510.228,1659.037,2514.481,1647.019,2518.036,1634.703L2518.036,1634.703z"/>
		<path id="XMLID_34_" style="fill:#FFFFFF;" d="M2062.715,1400.703c-18.001,0-27.001,18-45.001,18c-9,0-109.586,0-109.586,0
			c-4.929,11.666-9.182,23.685-12.736,36c0,0,113.322,0,122.322,0c18,0,27,18,45.001,18c19.88,0,36-16.118,36-36
			C2098.715,1416.82,2082.595,1400.703,2062.715,1400.703z"/>
	</g>
</g>
<g>
	<g id="XMLID_76_">
		<g id="XMLID_105_">
			<path id="XMLID_120_" style="fill:#FFFFFF;" d="M2755.671-3508.461c16.138,0,32.276-16.139,32.276-32.276
				c0-16.137,0-64.552,0-64.552s-145.242,0-161.381,0c-16.137,0-32.277,16.138-32.277,32.276c0,16.139,0,96.828,0,96.828
				s0,32.276,32.277,32.276c32.275,0,161.381,0,161.381,0s0-32.276-32.276-32.276c-32.274,0-112.966,0-112.966,0
				s-16.139,0-16.139-16.138v-32.277c0,0,0,16.139,16.139,16.139C2646.74-3508.461,2743.344-3508.461,2755.671-3508.461z
				 M2626.566-3556.874c0-8.069,8.068-16.139,16.139-16.139c8.068,0,104.896,0,112.966,0c0,0,0,8.069,0,16.139
				c0,8.067-8.069,16.137-16.14,16.137c-8.066,0-112.965,0-112.965,0S2626.566-3548.807,2626.566-3556.874z"/>
			<path id="XMLID_115_" style="fill:#FFFFFF;" d="M3094.572-3540.737c-16.139,0-32.277,16.138-32.277,32.276s0,64.553,0,64.553
				s145.241,0,161.381,0c16.137,0,32.275-16.139,32.275-32.276s0-96.828,0-96.828s0-32.276-32.275-32.276s-161.381,0-161.381,0
				s0,32.276,32.277,32.276c32.275,0,112.964,0,112.964,0s16.14,0,16.14,16.139v32.274c0,0,0-16.138-16.14-16.138
				C3203.502-3540.737,3106.898-3540.737,3094.572-3540.737z M3223.676-3492.322c0,8.068-8.068,16.138-16.14,16.138
				c-8.067,0-104.896,0-112.964,0c0,0,0-8.069,0-16.138c0-8.069,8.068-16.139,16.137-16.139c8.07,0,112.967,0,112.967,0
				S3223.676-3500.392,3223.676-3492.322z"/>
			<path id="XMLID_113_" style="fill:#FFFFFF;" d="M3013.881-3443.908h32.274v-161.381c0,0-8.067,0-16.136,0
				c-8.07,0-16.139,8.07-16.139,16.138C3013.881-3581.082,3013.881-3443.908,3013.881-3443.908z"/>
			<path id="XMLID_111_" style="fill:#FFFFFF;" d="M2804.086-3443.908c0,0,0-112.968,0-129.104
				c0-16.138,16.137-32.276,32.275-32.276v32.276c0,0,0-32.276,32.277-32.276c32.275,0,129.104,0,129.104,0s0,112.967,0,129.104
				s-16.137,32.276-32.275,32.276v-129.104c0,0-104.898,0-112.967,0c-8.07,0-16.139,8.069-16.139,16.139
				c0,8.067,0,112.966,0,112.966H2804.086z"/>
			<path id="XMLID_108_" style="fill:#FFFFFF;" d="M3304.365-3605.289c-16.139,0-32.276,16.138-32.276,32.276
				c0,16.139,0,129.104,0,129.104s145.243,0,161.381,0c16.14,0,32.276-16.139,32.276-32.276s0-129.104,0-129.104
				S3320.504-3605.289,3304.365-3605.289z M3433.47-3492.322c0,8.068-8.069,16.138-16.138,16.138s-112.967,0-112.967,0
				s0-72.622,0-80.689c0-8.069,8.069-16.139,16.139-16.139c8.067,0,112.966,0,112.966,0S3433.47-3500.392,3433.47-3492.322z"/>
			<polygon id="XMLID_107_" style="fill:#FFFFFF;" points="3481.885,-3427.771 3288.227,-3556.874 3288.227,-3589.151 
				3481.885,-3460.047 			"/>
			<path id="XMLID_106_" style="fill:#FFFFFF;" d="M2578.152-3597.219v-8.07h-193.658c0,0,0,8.068,0,16.138
				c0,8.069,8.068,16.138,16.139,16.138c8.068,0,129.105,0,129.105,0s-102.88,68.587-121.037,80.69
				c-18.154,12.103-24.207,16.138-24.207,40.345v8.069h193.658c0,0,0-8.069,0-16.139s-8.068-16.138-16.139-16.138
				c-8.068,0-129.104,0-129.104,0s108.933-72.622,121.036-80.689C2572.1-3568.979,2578.152-3573.013,2578.152-3597.219z"/>
		</g>
		<g id="XMLID_77_">
			<path id="XMLID_103_" style="fill:#7CC0DE;" d="M2463.705-3399.515h-36.13v56.435h-6.949v-56.435h-36.132v-6.952h79.211
				V-3399.515z"/>
			<path id="XMLID_100_" style="fill:#7CC0DE;" d="M2477.244-3380.49v2.287h72.535v6.951h-72.535v2.378
				c0,10.337,8.689,18.843,19.025,18.843h53.51v6.951h-53.51c-14.359,0-25.977-11.799-25.977-25.977v-11.434
				c0-14.36,11.799-25.977,25.977-25.977h53.51v6.952h-53.51c-5.215,0-9.971,2.104-13.445,5.579
				C2479.348-3390.461,2477.244-3385.703,2477.244-3380.49z"/>
			<path id="XMLID_98_" style="fill:#7CC0DE;" d="M2567.432-3369.057v-11.434c0-14.27,11.707-25.977,26.068-25.977h53.418v6.952
				H2593.5c-10.518,0-19.024,8.598-19.115,19.024v11.434c0,10.335,8.506,19.025,18.932,19.025h53.602v6.951H2593.5
				c-7.133,0-13.719-2.927-18.385-7.591C2570.359-3355.428,2567.432-3361.923,2567.432-3369.057z"/>
			<path id="XMLID_96_" style="fill:#7CC0DE;" d="M2742.592-3406.467v63.387h-7.043v-30.641h-63.752v30.641h-6.953v-63.387h6.953
				v25.793h63.752v-25.793H2742.592z"/>
			<path id="XMLID_94_" style="fill:#7CC0DE;" d="M2818.418-3347.014l-43.627-51.403c-1.1-1.28-2.654-1.83-4.301-1.83
				c-2.835,0-5.762,1.739-5.854,4.94v52.227h-6.953v-52.868l0.094-0.273c0.457-6.951,6.769-11.067,12.896-11.067
				c3.566,0,7.135,1.372,9.514,4.48l43.627,51.406c1.1,1.279,2.746,1.92,4.301,1.92c2.744,0,5.488-1.829,5.762-5.03v-52.137h7.043
				v52.776c-0.822,6.859-6.676,11.433-12.897,11.433c-1.737,0-3.567-0.365-5.304-1.188
				C2821.072-3344.361,2820.066-3345.001,2818.418-3347.014z"/>
			<path id="XMLID_91_" style="fill:#7CC0DE;" d="M2885.188-3343.08c-14.358,0-25.976-11.616-25.976-25.977v-11.434
				c0-14.27,11.617-25.977,25.976-25.977h47.017c14.359,0,26.066,11.707,26.066,25.977v11.434c0,14.36-11.707,25.977-26.066,25.977
				H2885.188z M2866.166-3369.057c0,10.428,8.598,19.025,19.022,19.025h47.017c10.52,0,19.115-8.598,19.115-19.025v-11.434
				c0-10.427-8.596-19.024-19.115-19.024h-47.017c-10.425,0-19.022,8.598-19.022,19.024V-3369.057z"/>
			<path id="XMLID_89_" style="fill:#7CC0DE;" d="M2980.316-3406.467v37.318c0,5.305,2.104,10.063,5.58,13.446
				c3.476,3.476,8.232,5.671,13.447,5.671h53.416v6.951h-53.416c-7.135,0-13.631-2.927-18.385-7.683
				c-4.666-4.665-7.594-11.16-7.594-18.386v-37.318H2980.316z"/>
			<path id="XMLID_86_" style="fill:#7CC0DE;" d="M3085.23-3343.08c-14.359,0-25.977-11.616-25.977-25.977v-11.434
				c0-14.27,11.617-25.977,25.977-25.977h47.016c14.359,0,26.068,11.707,26.068,25.977v11.434c0,14.36-11.709,25.977-26.068,25.977
				H3085.23z M3066.205-3369.057c0,10.428,8.598,19.025,19.025,19.025h47.016c10.518,0,19.115-8.598,19.115-19.025v-11.434
				c0-10.427-8.598-19.024-19.115-19.024h-47.016c-10.428,0-19.025,8.598-19.025,19.024V-3369.057z"/>
			<path id="XMLID_84_" style="fill:#7CC0DE;" d="M3199.383-3343.08c-14.179,0-25.978-11.616-25.978-25.977v-11.434
				c0-14.177,11.616-25.977,25.978-25.977h38.416v6.952h-38.416c-10.336,0-19.025,8.506-19.025,18.841v11.617
				c0,10.335,8.508,19.025,18.842,19.025h31.098c10.336,0,19.025-8.506,19.025-18.843v-2.652h-28.902v-6.951h35.853v9.421
				c0,14.178-11.617,25.977-25.976,25.977H3199.383z"/>
			<path id="XMLID_82_" style="fill:#7CC0DE;" d="M3271.367-3343.08v-63.387h6.951v63.387H3271.367z"/>
			<path id="XMLID_80_" style="fill:#7CC0DE;" d="M3300.363-3380.49v2.287h72.533v6.951h-72.533v2.378
				c0,10.337,8.689,18.843,19.025,18.843h53.508v6.951h-53.508c-14.361,0-25.977-11.799-25.977-25.977v-11.434
				c0-14.36,11.799-25.977,25.977-25.977h53.508v6.952h-53.508c-5.216,0-9.971,2.104-13.445,5.579
				C3302.467-3390.461,3300.363-3385.703,3300.363-3380.49z"/>
			<path id="XMLID_78_" style="fill:#7CC0DE;" d="M3390.551-3343.08v-6.951h60.459c5.854,0,10.61-4.756,10.61-10.611
				c0-5.945-4.665-10.701-10.61-10.701h-46.373c-9.604,0-17.563-7.774-17.563-17.561c0-9.879,7.775-17.654,17.563-17.745h60.459
				v6.952h-60.459c-6.037,0-10.336,4.847-10.611,10.609c0.457,6.037,4.847,10.793,10.611,10.793h46.373
				c9.694,0,17.562,7.866,17.562,17.562c0,9.787-7.772,17.653-17.562,17.653H3390.551z"/>
		</g>
	</g>
	<g id="XMLID_68_">
		<path id="XMLID_75_" style="fill:#7CC0DE;" d="M2144.589-3380.289c-19.884,0-36-16.118-36-36c0-19.883,16.116-36,36-36
			c17.999,0,26.999,18,44.999,18c8.998,0,122.277,0,122.322,0c8.246-28.576,12.678-58.769,12.678-90
			c0-41.401-7.778-80.981-21.932-117.378l-338.067,225.378l228.704,152.471c46.31-34.318,83.154-80.681,105.881-134.471
			c-0.035,0-100.588,0-109.586,0C2171.588-3398.289,2162.588-3380.289,2144.589-3380.289z"/>
		<path id="XMLID_74_" style="fill:#7CC0DE;" d="M1807.883-3784.76c-46.31,34.318-83.154,80.681-105.881,134.471l0,0
			c0,0,100.586,0,109.586,0c18,0,27-18,45.001-18c19.88,0,36,16.117,36,36c0,19.882-16.12,36-36,36c-18.001,0-27.001-18-45.001-18
			c-9,0-122.322,0-122.322,0l0,0c-8.246,28.575-12.678,58.769-12.678,90c0,41.401,7.779,80.981,21.933,117.378l338.068-225.378
			L1807.883-3784.76z"/>
		<path id="XMLID_73_" style="fill:#7CC0DE;" d="M2285.682-3678.35c-54.805-101.203-161.92-169.939-285.094-169.939
			c-56.564,0-109.735,14.51-156.018,39.988l0,0l264.019,176.012l-393.095,262.062c54.806,101.203,161.921,169.938,285.094,169.938
			c56.565,0,109.736-14.51,156.018-39.988l-264.017-176.012L2285.682-3678.35z"/>
		<path id="XMLID_72_" style="fill:#FFFFFF;" d="M1844.57-3808.301c-12.78,7.035-25.035,14.905-36.688,23.541l0,0l228.706,152.471
			l-338.068,225.378h-0.001c4.912,12.63,10.582,24.88,16.975,36.684l393.095-262.062L1844.57-3808.301z"/>
		<path id="XMLID_71_" style="fill:#FFFFFF;" d="M2302.656-3641.668c-4.912-12.63-10.584-24.88-16.975-36.684v0.001
			l-393.093,262.061l264.017,176.012l0,0c12.779-7.035,25.033-14.905,36.688-23.541h-0.001l-228.704-152.471L2302.656-3641.668
			L2302.656-3641.668z"/>
		<path id="XMLID_70_" style="fill:#FFFFFF;" d="M2311.91-3434.289c-0.045,0-113.324,0-122.322,0c-18,0-27-18-44.999-18
			c-19.884,0-36,16.117-36,36c0,19.882,16.116,36,36,36c17.999,0,26.999-18,44.999-18c8.998,0,109.551,0,109.586,0l0,0
			C2304.102-3409.955,2308.355-3421.974,2311.91-3434.289L2311.91-3434.289z"/>
		<path id="XMLID_69_" style="fill:#FFFFFF;" d="M1856.589-3668.289c-18.001,0-27.001,18-45.001,18c-9,0-109.586,0-109.586,0
			c-4.929,11.665-9.182,23.685-12.736,36c0,0,113.322,0,122.322,0c18,0,27,18,45.001,18c19.88,0,36-16.118,36-36
			C1892.589-3652.172,1876.469-3668.289,1856.589-3668.289z"/>
	</g>
</g>
<g>
	<g id="XMLID_331_">
		<path id="XMLID_347_" style="fill:#043A63;" d="M117.403-2146.885c14.056,0,28.113-14.057,28.113-28.112
			c0-14.057,0-56.226,0-56.226s-126.508,0-140.565,0c-14.055,0-28.113,14.056-28.113,28.113s0,84.338,0,84.338
			s0,28.114,28.113,28.114c28.113,0,140.565,0,140.565,0s0-28.114-28.113-28.114c-28.111,0-98.395,0-98.395,0
			s-14.057,0-14.057-14.055v-28.114c0,0,0,14.057,14.057,14.057C22.523-2146.885,106.667-2146.885,117.403-2146.885z
			 M4.951-2189.054c0-7.028,7.029-14.057,14.057-14.057c7.029,0,91.367,0,98.395,0c0,0,0,7.029,0,14.057
			c0,7.027-7.028,14.057-14.057,14.057c-7.027,0-98.395,0-98.395,0S4.951-2182.027,4.951-2189.054z"/>
		<path id="XMLID_343_" style="fill:#043A63;" d="M412.592-2174.998c-14.057,0-28.114,14.056-28.114,28.112
			c0,14.058,0,56.227,0,56.227s126.509,0,140.565,0c14.056,0,28.112-14.056,28.112-28.114c0-14.055,0-84.338,0-84.338
			s0-28.113-28.112-28.113s-140.565,0-140.565,0s0,28.113,28.114,28.113c28.112,0,98.395,0,98.395,0s14.057,0,14.057,14.057v28.112
			c0,0,0-14.056-14.057-14.056C507.472-2174.998,423.328-2174.998,412.592-2174.998z M525.043-2132.828
			c0,7.027-7.027,14.055-14.057,14.055c-7.028,0-91.367,0-98.395,0c0,0,0-7.028,0-14.055c0-7.029,7.027-14.058,14.056-14.058
			c7.029,0,98.396,0,98.396,0S525.043-2139.856,525.043-2132.828z"/>
		<path id="XMLID_342_" style="fill:#043A63;" d="M342.309-2090.659h28.112v-140.565c0,0-7.027,0-14.056,0
			c-7.029,0-14.057,7.028-14.057,14.056S342.309-2090.659,342.309-2090.659z"/>
		<path id="XMLID_341_" style="fill:#043A63;" d="M159.574-2090.659c0,0,0-98.396,0-112.452c0-14.057,14.055-28.113,28.112-28.113
			v28.113c0,0,0-28.113,28.114-28.113c28.112,0,112.451,0,112.451,0s0,98.396,0,112.451c0,14.058-14.055,28.114-28.112,28.114
			v-112.452c0,0-91.368,0-98.396,0c-7.029,0-14.057,7.029-14.057,14.057c0,7.027,0,98.396,0,98.396H159.574z"/>
		<path id="XMLID_337_" style="fill:#043A63;" d="M595.325-2231.224c-14.058,0-28.112,14.056-28.112,28.113s0,112.452,0,112.452
			s126.508,0,140.565,0c14.057,0,28.112-14.056,28.112-28.114c0-14.055,0-112.451,0-112.451S609.382-2231.224,595.325-2231.224z
			 M707.778-2132.828c0,7.027-7.029,14.055-14.058,14.055c-7.027,0-98.396,0-98.396,0s0-63.254,0-70.282
			c0-7.028,7.029-14.057,14.057-14.057c7.028,0,98.396,0,98.396,0S707.778-2139.856,707.778-2132.828z"/>
		<polygon id="XMLID_336_" style="fill:#043A63;" points="749.947,-2076.602 581.268,-2189.054 581.268,-2217.167 
			749.947,-2104.715 		"/>
		<path id="XMLID_334_" style="fill:#043A63;" d="M-37.218-2224.196v-7.028h-168.678c0,0,0,7.028,0,14.056
			s7.027,14.057,14.057,14.057c7.027,0,112.453,0,112.453,0s-89.611,59.74-105.425,70.283
			c-15.813,10.541-21.084,14.055-21.084,35.141v7.028h168.678c0,0,0-7.028,0-14.056c0-7.03-7.027-14.058-14.057-14.058
			c-7.028,0-112.452,0-112.452,0s94.882-63.254,105.424-70.282C-42.489-2199.596-37.218-2203.111-37.218-2224.196z"/>
	</g>
	<g id="XMLID_284_">
		<path id="XMLID_324_" style="fill:#7CC0DE;" d="M-136.903-2051.991h-31.47v49.155h-6.053v-49.155h-31.471v-6.056h68.994V-2051.991
			z"/>
		<path id="XMLID_316_" style="fill:#7CC0DE;" d="M-125.111-2035.42v1.992h63.179v6.055h-63.179v2.071
			c0,9.003,7.57,16.413,16.572,16.413h46.607v6.054h-46.607c-12.507,0-22.626-10.277-22.626-22.626v-9.959
			c0-12.508,10.277-22.626,22.626-22.626h46.607v6.056h-46.607c-4.542,0-8.685,1.832-11.711,4.86
			C-123.278-2044.105-125.111-2039.961-125.111-2035.42z"/>
		<path id="XMLID_314_" style="fill:#7CC0DE;" d="M-46.556-2025.461v-9.959c0-12.429,10.198-22.626,22.706-22.626h46.528v6.056
			H-23.85c-9.161,0-16.57,7.488-16.649,16.57v9.959c0,9.002,7.409,16.572,16.49,16.572h46.688v6.054H-23.85
			c-6.212,0-11.949-2.549-16.013-6.612C-44.006-2013.59-46.556-2019.248-46.556-2025.461z"/>
		<path id="XMLID_311_" style="fill:#7CC0DE;" d="M106.011-2058.046v55.211h-6.133v-26.688h-55.53v26.688h-6.055v-55.211h6.055
			v22.466h55.53v-22.466H106.011z"/>
		<path id="XMLID_309_" style="fill:#7CC0DE;" d="M172.057-2006.262l-38-44.772c-0.958-1.115-2.312-1.594-3.746-1.594
			c-2.469,0-5.019,1.514-5.099,4.303v45.49h-6.056v-46.05l0.081-0.238c0.398-6.054,5.896-9.64,11.233-9.64
			c3.106,0,6.214,1.197,8.287,3.903l38,44.775c0.958,1.114,2.392,1.672,3.746,1.672c2.391,0,4.781-1.593,5.019-4.381v-45.412h6.135
			v45.969c-0.716,5.975-5.815,9.959-11.233,9.959c-1.514,0-3.108-0.318-4.621-1.036
			C174.369-2003.952,173.493-2004.509,172.057-2006.262z"/>
		<path id="XMLID_306_" style="fill:#7CC0DE;" d="M230.216-2002.835c-12.507,0-22.626-10.118-22.626-22.626v-9.959
			c0-12.429,10.119-22.626,22.626-22.626h40.951c12.507,0,22.705,10.197,22.705,22.626v9.959c0,12.508-10.197,22.626-22.705,22.626
			H230.216z M213.646-2025.461c0,9.083,7.489,16.572,16.57,16.572h40.951c9.163,0,16.65-7.489,16.65-16.572v-9.959
			c0-9.082-7.487-16.57-16.65-16.57h-40.951c-9.081,0-16.57,7.488-16.57,16.57V-2025.461z"/>
		<path id="XMLID_301_" style="fill:#7CC0DE;" d="M313.073-2058.046v32.505c0,4.621,1.832,8.765,4.86,11.712
			c3.028,3.027,7.171,4.94,11.713,4.94h46.526v6.054h-46.526c-6.215,0-11.873-2.549-16.014-6.691
			c-4.064-4.063-6.614-9.721-6.614-16.015v-32.505H313.073z"/>
		<path id="XMLID_297_" style="fill:#7CC0DE;" d="M404.455-2002.835c-12.507,0-22.626-10.118-22.626-22.626v-9.959
			c0-12.429,10.119-22.626,22.626-22.626h40.951c12.508,0,22.706,10.197,22.706,22.626v9.959c0,12.508-10.198,22.626-22.706,22.626
			H404.455z M387.884-2025.461c0,9.083,7.488,16.572,16.571,16.572h40.951c9.161,0,16.649-7.489,16.649-16.572v-9.959
			c0-9.082-7.488-16.57-16.649-16.57h-40.951c-9.083,0-16.571,7.488-16.571,16.57V-2025.461z"/>
		<path id="XMLID_292_" style="fill:#7CC0DE;" d="M503.884-2002.835c-12.35,0-22.626-10.118-22.626-22.626v-9.959
			c0-12.349,10.117-22.626,22.626-22.626h33.461v6.056h-33.461c-9.003,0-16.571,7.408-16.571,16.41v10.119
			c0,9.002,7.41,16.572,16.411,16.572h27.087c9.003,0,16.571-7.41,16.571-16.413v-2.311h-25.175v-6.055h31.229v8.206
			c0,12.349-10.119,22.626-22.626,22.626H503.884z"/>
		<path id="XMLID_289_" style="fill:#7CC0DE;" d="M566.583-2002.835v-55.211h6.055v55.211H566.583z"/>
		<path id="XMLID_287_" style="fill:#7CC0DE;" d="M591.839-2035.42v1.992h63.178v6.055h-63.178v2.071
			c0,9.003,7.569,16.413,16.571,16.413h46.606v6.054H608.41c-12.509,0-22.626-10.277-22.626-22.626v-9.959
			c0-12.508,10.277-22.626,22.626-22.626h46.606v6.056H608.41c-4.542,0-8.685,1.832-11.711,4.86
			C593.672-2044.105,591.839-2039.961,591.839-2035.42z"/>
		<path id="XMLID_285_" style="fill:#7CC0DE;" d="M670.394-2002.835v-6.054h52.661c5.099,0,9.243-4.143,9.243-9.243
			c0-5.179-4.064-9.321-9.243-9.321h-40.392c-8.365,0-15.297-6.772-15.297-15.296c0-8.604,6.772-15.377,15.297-15.456h52.661v6.056
			h-52.661c-5.259,0-9.003,4.222-9.243,9.24c0.398,5.259,4.223,9.401,9.243,9.401h40.392c8.444,0,15.297,6.852,15.297,15.296
			c0,8.525-6.771,15.377-15.297,15.377H670.394z"/>
	</g>
	<path id="XMLID_283_" style="fill:#7CC0DE;" d="M389.879-2450.72c-17.318,0-31.356-14.039-31.356-31.356
		s14.038-31.356,31.356-31.356c15.678,0,23.518,15.678,39.195,15.678c7.838,0,106.506,0,106.545,0
		c7.183-24.89,11.043-51.188,11.043-78.392c0-36.061-6.775-70.536-19.104-102.238l-294.462,196.308l199.206,132.804
		c40.336-29.891,72.429-70.274,92.224-117.126c-0.03,0-87.613,0-95.451,0C413.396-2466.398,405.557-2450.72,389.879-2450.72z"/>
	<path id="XMLID_282_" style="fill:#7CC0DE;" d="M96.603-2803.021c-40.336,29.891-72.428,70.274-92.224,117.126h0
		c0,0,87.611,0,95.451,0c15.678,0,23.517-15.678,39.196-15.678c17.317,0,31.357,14.04,31.357,31.356
		c0,17.318-14.04,31.357-31.357,31.357c-15.679,0-23.518-15.678-39.196-15.678c-7.839,0-106.544,0-106.544,0l0,0
		c-7.183,24.89-11.043,51.188-11.043,78.391c0,36.062,6.775,70.537,19.104,102.239l294.463-196.309L96.603-2803.021z"/>
	<path id="XMLID_281_" style="fill:#7CC0DE;" d="M512.773-2710.336c-47.736-88.149-141.035-148.019-248.321-148.019
		c-49.269,0-95.582,12.639-135.894,34.831h0l229.963,153.308l-342.391,228.26c47.736,88.15,141.035,148.019,248.321,148.019
		c49.269,0,95.582-12.638,135.894-34.831l-229.963-153.309L512.773-2710.336z"/>
	<path id="XMLID_280_" style="fill:#FFFFFF;" d="M128.559-2823.524c-11.132,6.127-21.806,12.981-31.957,20.504h0l199.207,132.804
		L1.347-2473.907l0,0c4.278,11,9.217,21.67,14.785,31.951l342.391-228.26L128.559-2823.524z"/>
	<path id="XMLID_279_" style="fill:#FFFFFF;" d="M527.56-2678.385c-4.279-11.001-9.219-21.671-14.785-31.952l-0.001,0
		l-342.39,228.26l229.963,153.309l0,0c11.131-6.127,21.805-12.982,31.955-20.505l0,0l-199.206-132.804L527.56-2678.385
		L527.56-2678.385z"/>
	<path id="XMLID_278_" style="fill:#FFFFFF;" d="M535.619-2497.755c-0.039,0-98.707,0-106.545,0
		c-15.678,0-23.518-15.678-39.195-15.678c-17.318,0-31.356,14.039-31.356,31.356s14.038,31.356,31.356,31.356
		c15.678,0,23.518-15.678,39.195-15.678c7.838,0,95.421,0,95.451,0h0.001C528.818-2476.559,532.523-2487.028,535.619-2497.755
		L535.619-2497.755z"/>
	<path id="XMLID_277_" style="fill:#FFFFFF;" d="M139.026-2701.573c-15.679,0-23.518,15.678-39.196,15.678
		c-7.839,0-95.451,0-95.451,0c-4.293,10.161-7.998,20.63-11.094,31.357c0,0,98.705,0,106.544,0
		c15.678,0,23.517,15.678,39.196,15.678c17.317,0,31.357-14.039,31.357-31.357C170.383-2687.533,156.343-2701.573,139.026-2701.573z
		"/>
</g>
<g>
	<g id="XMLID_231_">
		<g id="XMLID_262_">
			<path id="XMLID_274_" style="fill:#043A63;" d="M2693.884-2414.489c16.138,0,32.276-16.139,32.276-32.276s0-64.552,0-64.552
				s-145.242,0-161.381,0c-16.137,0-32.277,16.137-32.277,32.276c0,16.138,0,96.828,0,96.828s0,32.276,32.277,32.276
				c32.275,0,161.381,0,161.381,0s0-32.276-32.276-32.276c-32.274,0-112.966,0-112.966,0s-16.139,0-16.139-16.137v-32.278
				c0,0,0,16.139,16.139,16.139C2584.953-2414.489,2681.557-2414.489,2693.884-2414.489z M2564.779-2462.902
				c0-8.069,8.068-16.138,16.139-16.138c8.068,0,104.896,0,112.966,0c0,0,0,8.069,0,16.138c0,8.068-8.069,16.137-16.14,16.137
				c-8.066,0-112.965,0-112.965,0S2564.779-2454.834,2564.779-2462.902z"/>
			<path id="XMLID_271_" style="fill:#043A63;" d="M3032.785-2446.765c-16.139,0-32.277,16.137-32.277,32.276
				c0,16.139,0,64.553,0,64.553s145.241,0,161.381,0c16.137,0,32.275-16.139,32.275-32.276c0-16.137,0-96.828,0-96.828
				s0-32.276-32.275-32.276s-161.381,0-161.381,0s0,32.276,32.277,32.276c32.275,0,112.964,0,112.964,0s16.14,0,16.14,16.138v32.274
				c0,0,0-16.137-16.14-16.137C3141.715-2446.765,3045.111-2446.765,3032.785-2446.765z M3161.889-2398.35
				c0,8.068-8.068,16.137-16.14,16.137c-8.067,0-104.896,0-112.964,0c0,0,0-8.069,0-16.137c0-8.07,8.068-16.139,16.137-16.139
				c8.07,0,112.967,0,112.967,0S3161.889-2406.419,3161.889-2398.35z"/>
			<path id="XMLID_270_" style="fill:#043A63;" d="M2952.094-2349.936h32.274v-161.38c0,0-8.067,0-16.136,0
				c-8.07,0-16.139,8.069-16.139,16.137C2952.094-2487.11,2952.094-2349.936,2952.094-2349.936z"/>
			<path id="XMLID_269_" style="fill:#043A63;" d="M2742.299-2349.936c0,0,0-112.967,0-129.104
				c0-16.139,16.137-32.276,32.275-32.276v32.276c0,0,0-32.276,32.277-32.276c32.275,0,129.104,0,129.104,0s0,112.967,0,129.104
				c0,16.138-16.137,32.276-32.275,32.276v-129.104c0,0-104.898,0-112.967,0c-8.07,0-16.139,8.069-16.139,16.138
				c0,8.068,0,112.966,0,112.966H2742.299z"/>
			<path id="XMLID_265_" style="fill:#043A63;" d="M3242.578-2511.316c-16.139,0-32.276,16.137-32.276,32.276
				c0,16.138,0,129.104,0,129.104s145.243,0,161.381,0c16.14,0,32.276-16.139,32.276-32.276c0-16.137,0-129.104,0-129.104
				S3258.717-2511.316,3242.578-2511.316z M3371.683-2398.35c0,8.068-8.069,16.137-16.138,16.137s-112.967,0-112.967,0
				s0-72.622,0-80.689c0-8.069,8.069-16.138,16.139-16.138c8.067,0,112.966,0,112.966,0S3371.683-2406.419,3371.683-2398.35z"/>
			<polygon id="XMLID_264_" style="fill:#043A63;" points="3420.098,-2333.798 3226.439,-2462.902 3226.439,-2495.179 
				3420.098,-2366.075 			"/>
			<path id="XMLID_263_" style="fill:#043A63;" d="M2516.365-2503.248v-8.069h-193.658c0,0,0,8.068,0,16.137
				c0,8.069,8.068,16.139,16.139,16.139c8.068,0,129.105,0,129.105,0s-102.88,68.586-121.037,80.69
				c-18.154,12.102-24.207,16.137-24.207,40.344v8.069h193.658c0,0,0-8.069,0-16.139s-8.068-16.138-16.139-16.138
				c-8.068,0-129.104,0-129.104,0s108.933-72.622,121.036-80.689C2510.313-2475.006,2516.365-2479.04,2516.365-2503.248z"/>
		</g>
		<g id="XMLID_232_">
			<path id="XMLID_259_" style="fill:#7CC0DE;" d="M2401.918-2305.542h-36.13v56.434h-6.949v-56.434h-36.132v-6.953h79.211
				V-2305.542z"/>
			<path id="XMLID_256_" style="fill:#7CC0DE;" d="M2415.457-2286.518v2.286h72.535v6.952h-72.535v2.378
				c0,10.337,8.689,18.843,19.025,18.843h53.51v6.951h-53.51c-14.359,0-25.977-11.799-25.977-25.976v-11.434
				c0-14.361,11.799-25.977,25.977-25.977h53.51v6.953h-53.51c-5.215,0-9.971,2.102-13.445,5.578
				C2417.561-2296.489,2415.457-2291.731,2415.457-2286.518z"/>
			<path id="XMLID_254_" style="fill:#7CC0DE;" d="M2505.645-2275.084v-11.434c0-14.27,11.707-25.977,26.068-25.977h53.418v6.953
				h-53.418c-10.518,0-19.024,8.597-19.115,19.024v11.434c0,10.336,8.506,19.025,18.932,19.025h53.602v6.951h-53.418
				c-7.133,0-13.719-2.927-18.385-7.591C2508.572-2261.456,2505.645-2267.949,2505.645-2275.084z"/>
			<path id="XMLID_252_" style="fill:#7CC0DE;" d="M2680.805-2312.495v63.387h-7.043v-30.64h-63.752v30.64h-6.953v-63.387h6.953
				v25.793h63.752v-25.793H2680.805z"/>
			<path id="XMLID_250_" style="fill:#7CC0DE;" d="M2756.631-2253.042l-43.627-51.403c-1.1-1.28-2.654-1.829-4.301-1.829
				c-2.835,0-5.762,1.738-5.854,4.94v52.226h-6.953v-52.868l0.094-0.274c0.457-6.951,6.769-11.067,12.896-11.067
				c3.566,0,7.135,1.373,9.514,4.481l43.627,51.405c1.1,1.28,2.746,1.92,4.301,1.92c2.744,0,5.488-1.828,5.762-5.029v-52.138h7.043
				v52.777c-0.822,6.859-6.676,11.432-12.897,11.432c-1.737,0-3.567-0.364-5.304-1.188
				C2759.285-2250.389,2758.279-2251.029,2756.631-2253.042z"/>
			<path id="XMLID_247_" style="fill:#7CC0DE;" d="M2823.401-2249.108c-14.358,0-25.976-11.616-25.976-25.976v-11.434
				c0-14.27,11.617-25.977,25.976-25.977h47.017c14.359,0,26.066,11.707,26.066,25.977v11.434c0,14.36-11.707,25.976-26.066,25.976
				H2823.401z M2804.379-2275.084c0,10.427,8.598,19.025,19.022,19.025h47.017c10.52,0,19.115-8.598,19.115-19.025v-11.434
				c0-10.427-8.596-19.024-19.115-19.024h-47.017c-10.425,0-19.022,8.597-19.022,19.024V-2275.084z"/>
			<path id="XMLID_245_" style="fill:#7CC0DE;" d="M2918.529-2312.495v37.318c0,5.305,2.104,10.063,5.58,13.446
				c3.476,3.477,8.232,5.671,13.447,5.671h53.416v6.951h-53.416c-7.135,0-13.631-2.927-18.385-7.682
				c-4.666-4.666-7.594-11.16-7.594-18.387v-37.318H2918.529z"/>
			<path id="XMLID_241_" style="fill:#7CC0DE;" d="M3023.443-2249.108c-14.359,0-25.977-11.616-25.977-25.976v-11.434
				c0-14.27,11.617-25.977,25.977-25.977h47.016c14.359,0,26.068,11.707,26.068,25.977v11.434c0,14.36-11.709,25.976-26.068,25.976
				H3023.443z M3004.418-2275.084c0,10.427,8.598,19.025,19.025,19.025h47.016c10.518,0,19.115-8.598,19.115-19.025v-11.434
				c0-10.427-8.598-19.024-19.115-19.024h-47.016c-10.428,0-19.025,8.597-19.025,19.024V-2275.084z"/>
			<path id="XMLID_239_" style="fill:#7CC0DE;" d="M3137.596-2249.108c-14.179,0-25.978-11.616-25.978-25.976v-11.434
				c0-14.177,11.616-25.977,25.978-25.977h38.416v6.953h-38.416c-10.336,0-19.025,8.506-19.025,18.84v11.618
				c0,10.336,8.508,19.025,18.842,19.025h31.098c10.336,0,19.025-8.505,19.025-18.843v-2.651h-28.902v-6.951h35.853v9.42
				c0,14.177-11.617,25.976-25.976,25.976H3137.596z"/>
			<path id="XMLID_237_" style="fill:#7CC0DE;" d="M3209.58-2249.108v-63.387h6.951v63.387H3209.58z"/>
			<path id="XMLID_235_" style="fill:#7CC0DE;" d="M3238.576-2286.518v2.286h72.533v6.952h-72.533v2.378
				c0,10.337,8.689,18.843,19.025,18.843h53.508v6.951h-53.508c-14.361,0-25.977-11.799-25.977-25.976v-11.434
				c0-14.361,11.799-25.977,25.977-25.977h53.508v6.953h-53.508c-5.216,0-9.971,2.102-13.445,5.578
				C3240.68-2296.489,3238.576-2291.731,3238.576-2286.518z"/>
			<path id="XMLID_233_" style="fill:#7CC0DE;" d="M3328.764-2249.108v-6.951h60.459c5.854,0,10.61-4.755,10.61-10.61
				c0-5.946-4.665-10.702-10.61-10.702h-46.373c-9.604,0-17.563-7.774-17.563-17.56c0-9.879,7.775-17.654,17.563-17.746h60.459
				v6.952h-60.459c-6.037,0-10.336,4.847-10.611,10.61c0.457,6.037,4.847,10.792,10.611,10.792h46.373
				c9.694,0,17.562,7.867,17.562,17.562c0,9.788-7.772,17.653-17.562,17.653H3328.764z"/>
		</g>
	</g>
	<g id="XMLID_223_">
		<path id="XMLID_230_" style="fill:#7CC0DE;" d="M2082.802-2286.316c-19.884,0-36-16.119-36-36c0-19.883,16.116-36,36-36
			c17.999,0,26.999,18,44.999,18c8.998,0,122.277,0,122.322,0c8.246-28.577,12.678-58.769,12.678-90
			c0-41.401-7.778-80.982-21.932-117.378l-338.067,225.378l228.704,152.47c46.31-34.318,83.154-80.681,105.881-134.47
			c-0.035,0-100.588,0-109.586,0C2109.801-2304.316,2100.801-2286.316,2082.802-2286.316z"/>
		<path id="XMLID_229_" style="fill:#7CC0DE;" d="M1746.096-2690.788c-46.31,34.317-83.154,80.681-105.881,134.471l0,0
			c0,0,100.586,0,109.586,0c18,0,27-18,45.001-18c19.88,0,36,16.117,36,36c0,19.881-16.12,36-36,36c-18.001,0-27.001-18-45.001-18
			c-9,0-122.322,0-122.322,0l0,0c-8.246,28.575-12.678,58.769-12.678,90c0,41.401,7.779,80.981,21.933,117.377l338.068-225.377
			L1746.096-2690.788z"/>
		<path id="XMLID_228_" style="fill:#7CC0DE;" d="M2223.895-2584.378c-54.805-101.203-161.92-169.938-285.094-169.938
			c-56.564,0-109.735,14.509-156.018,39.988l0,0l264.019,176.012l-393.095,262.062c54.806,101.202,161.921,169.938,285.094,169.938
			c56.565,0,109.736-14.51,156.018-39.989l-264.017-176.011L2223.895-2584.378z"/>
		<path id="XMLID_227_" style="fill:#FFFFFF;" d="M1782.783-2714.329c-12.78,7.035-25.035,14.905-36.688,23.541l0,0l228.706,152.471
			l-338.068,225.377h-0.001c4.912,12.63,10.582,24.88,16.975,36.685l393.095-262.062L1782.783-2714.329z"/>
		<path id="XMLID_226_" style="fill:#FFFFFF;" d="M2240.869-2547.695c-4.912-12.63-10.584-24.88-16.975-36.684v0l-393.093,262.062
			l264.017,176.011l0,0c12.779-7.035,25.033-14.905,36.688-23.541h-0.001l-228.704-152.47L2240.869-2547.695L2240.869-2547.695z"/>
		<path id="XMLID_225_" style="fill:#FFFFFF;" d="M2250.123-2340.316c-0.045,0-113.324,0-122.322,0c-18,0-27-18-44.999-18
			c-19.884,0-36,16.117-36,36c0,19.881,16.116,36,36,36c17.999,0,26.999-18,44.999-18c8.998,0,109.551,0,109.586,0l0,0
			C2242.314-2315.982,2246.568-2328.001,2250.123-2340.316L2250.123-2340.316z"/>
		<path id="XMLID_224_" style="fill:#FFFFFF;" d="M1794.802-2574.316c-18.001,0-27.001,18-45.001,18c-9,0-109.586,0-109.586,0
			c-4.929,11.665-9.182,23.684-12.736,36c0,0,113.322,0,122.322,0c18,0,27,18,45.001,18c19.88,0,36-16.119,36-36
			C1830.802-2558.199,1814.682-2574.316,1794.802-2574.316z"/>
	</g>
</g>
</svg>
