<svg width="1792" height="2048" xmlns="http://www.w3.org/2000/svg" preserveAspectRatio="xMidYMid meet">

 <g>
  <title>background</title>
  <rect fill="none" id="canvas_background" height="402" width="582" y="-1" x="-1"/>
 </g>
 <g>
  <title>Layer 1</title>
  <path fill="#242943" id="svg_1" d="m1792,838l0,794c0,44 -15.667,81.667 -47,113s-69,47 -113,47l-1472,0c-44,0 -81.667,-15.667 -113,-47s-47,-69 -47,-113l0,-794c29.333,32.667 63,61.667 101,87c241.333,164 407,279 497,345c38,28 68.833,49.833 92.5,65.5s55.167,31.667 94.5,48s76,24.5 110,24.5l1,0l1,0c34,0 70.667,-8.167 110,-24.5c39.333,-16.333 70.833,-32.333 94.5,-48s54.5,-37.5 92.5,-65.5c113.333,-82 279.333,-197 498,-345c38,-26 71.333,-55 100,-87zm0,-294c0,52.667 -16.333,103 -49,151s-73.333,89 -122,123c-250.667,174 -406.667,282.333 -468,325c-6.667,4.667 -20.833,14.833 -42.5,30.5s-39.667,28.333 -54,38s-31.667,20.5 -52,32.5c-20.333,12 -39.5,21 -57.5,27s-34.667,9 -50,9l-1,0l-1,0c-15.333,0 -32,-3 -50,-9s-37.167,-15 -57.5,-27s-37.667,-22.833 -52,-32.5s-32.333,-22.333 -54,-38s-35.833,-25.833 -42.5,-30.5c-60.667,-42.667 -148,-103.5 -262,-182.5s-182.333,-126.5 -205,-142.5c-41.333,-28 -80.333,-66.5 -117,-115.5s-55,-94.5 -55,-136.5c0,-52 13.833,-95.333 41.5,-130s67.167,-52 118.5,-52l1472,0c43.333,0 80.833,15.667 112.5,47s47.5,69 47.5,113z"/>
 </g>
</svg>