<?xml version="1.0" ?><svg contentScriptType="text/ecmascript" contentStyleType="text/css" enable-background="new 0 0 2048 2048" height="2048px" id="Layer_1" preserveAspectRatio="xMidYMid meet" version="1.1" viewBox="0.0 0 1536.0 2048" width="1536.0px" xml:space="preserve" xmlns="http://www.w3.org/2000/svg" xmlns:xlink="http://www.w3.org/1999/xlink" zoomAndPan="magnify"><path d="M349,753v991H19V753H349z M370,447c0.667,48.667-16.167,89.333-50.5,122S240,618,184,618h-2c-54.667,0-98.667-16.333-132-49  S0,495.667,0,447c0-49.333,17.167-90.167,51.5-122.5S130.667,276,186,276s99.667,16.167,133,48.5S369.333,397.667,370,447z   M1536,1176v568h-329v-530c0-70-13.5-124.833-40.5-164.5c-27-39.667-69.167-59.5-126.5-59.5c-42,0-77.167,11.5-105.5,34.5  S885,1076,871,1110c-7.333,20-11,47-11,81v553H531c1.333-266,2-481.667,2-647s-0.333-264-1-296l-1-48h329v144h-2  c13.333-21.333,27-40,41-56s32.833-33.333,56.5-52s52.667-33.167,87-43.5c34.333-10.333,72.5-15.5,114.5-15.5  c114,0,205.667,37.833,275,113.5S1536,1030,1536,1176z"/></svg>