<?xml version="1.0" ?><svg contentScriptType="text/ecmascript" contentStyleType="text/css" enable-background="new 0 0 2048 2048" height="2048px" id="Layer_1" preserveAspectRatio="xMidYMid meet" version="1.1" viewBox="0.0 0 1408.0 2048" width="1408.0px" xml:space="preserve" xmlns="http://www.w3.org/2000/svg" xmlns:xlink="http://www.w3.org/1999/xlink" zoomAndPan="magnify"><path d="M1408,1368c0,18-3.333,41.5-10,70.5s-13.667,51.833-21,68.5c-14,33.333-54.667,68.667-122,106c-62.667,34-124.667,51-186,51  c-18,0-35.5-1.167-52.5-3.5s-36.167-6.5-57.5-12.5s-37.167-10.833-47.5-14.5S882.667,1623,856,1613s-43-16-49-18  c-65.333-23.333-123.667-51-175-83c-85.333-52.667-173.5-124.5-264.5-215.5S204.667,1117.333,152,1032  c-32-51.333-59.667-109.667-83-175c-2-6-8-22.333-18-49s-16.833-45.167-20.5-55.5S22,726.333,16,705S5.833,664.5,3.5,647.5  S0,613,0,595c0-61.333,17-123.333,51-186c37.333-67.333,72.667-108,106-122c16.667-7.333,39.5-14.333,68.5-21s52.5-10,70.5-10  c9.333,0,16.333,1,21,3c12,4,29.667,29.333,53,76c7.333,12.667,17.333,30.667,30,54s24.333,44.5,35,63.5s21,36.833,31,53.5  c2,2.667,7.833,11,17.5,25s16.833,25.833,21.5,35.5s7,19.167,7,28.5c0,13.333-9.5,30-28.5,50s-39.667,38.333-62,55s-43,34.333-62,53  S331,787,331,799c0,6,1.667,13.5,5,22.5s6.167,15.833,8.5,20.5s7,12.667,14,24s10.833,17.667,11.5,19  c50.667,91.333,108.667,169.667,174,235c65.333,65.333,143.667,123.333,235,174c1.333,0.667,7.667,4.5,19,11.5s19.333,11.667,24,14  s11.5,5.167,20.5,8.5s16.5,5,22.5,5c12,0,27.333-9.5,46-28.5s36.333-39.667,53-62s35-43,55-62s36.667-28.5,50-28.5  c9.333,0,18.833,2.333,28.5,7s21.5,11.833,35.5,21.5s22.333,15.5,25,17.5c16.667,10,34.5,20.333,53.5,31s40.167,22.333,63.5,35  s41.333,22.667,54,30c46.667,23.333,72,41,76,53C1407,1351.667,1408,1358.667,1408,1368z"/></svg>